<?xml version="1.0" encoding="utf-8"?>
<!-- Generator: Adobe Illustrator 26.5.0, SVG Export Plug-In . SVG Version: 6.00 Build 0)  -->
<svg version="1.1" id="icon" xmlns="http://www.w3.org/2000/svg" xmlns:xlink="http://www.w3.org/1999/xlink" x="0px" y="0px"
	 viewBox="0 0 36 36" enable-background="new 0 0 36 36" xml:space="preserve">
<g>
	<rect x="20.571" y="10.286" width="2.571" height="2.571"/>
	<rect x="12.857" y="10.286" width="2.571" height="2.571"/>
	<path d="M30.857,23.143h-6.429v-2.571h1.286c1.419-0.002,2.57-1.152,2.571-2.571v-5.143h2.571v-2.571h-2.571V7.714
		c-0.002-1.419-1.152-2.57-2.571-2.571h-2.571V0h-2.571v5.143h-5.143V0h-2.571v5.143h-2.571c-1.419,0.002-2.57,1.152-2.571,2.571
		v2.571H5.143v2.571h2.571V18c0.002,1.419,1.152,2.57,2.571,2.571h1.286v2.571H5.143c-1.419,0.002-2.57,1.152-2.571,2.571V36h2.571
		V25.714h25.714V36h2.571V25.714C33.427,24.295,32.277,23.144,30.857,23.143z M10.286,7.714h15.429V18H10.286V7.714z M14.143,20.571
		h7.714v2.571h-7.714V20.571z"/>
</g>
</svg>
