<?xml version="1.0" encoding="utf-8"?>
<!-- Generator: Adobe Illustrator 26.5.0, SVG Export Plug-In . SVG Version: 6.00 Build 0)  -->
<svg version="1.1" id="Layer_1" xmlns="http://www.w3.org/2000/svg" xmlns:xlink="http://www.w3.org/1999/xlink" x="0px" y="0px"
	 viewBox="0 0 36 36" style="enable-background:new 0 0 36 36;" xml:space="preserve">
<g id="Logo">
	<g id="Initiator">
		<path class="st0" d="M36,18c0-9.9-8.1-18-18-18S0,8.1,0,18c0,8.4,5.8,15.5,13.7,17.5v-12H9.9V18h3.7v-2.4c0-6.1,2.8-9,8.8-9
			c1.1,0,3.1,0.2,3.9,0.4v5c-0.4,0-1.2-0.1-2.1-0.1c-3,0-4.1,1.1-4.1,4V18H26l-1,5.5h-4.9v12.4C29.1,34.8,36,27.2,36,18z"/>
	</g>
</g>
</svg>
