<svg xmlns="http://www.w3.org/2000/svg" id="Layer_1" viewBox="0 0 64 64"><defs><style>.cls-1{fill:#a7885b}</style></defs><path d="M38.37 15.17c.37.11.55.53.93.64.39-.17.71-.51 1.13-.62 2.51.12 7.89.86 8.55.97.02.17-.02.41.18.49.3.03.45-.43.78-.31 4.08.85 4.09.88 3.84 3.81-.05.53-.36 4.17-.62 4.93-.29.06-.65-.13-.88.11.27.23.58.4.84.63-.45 4.55.27 6.79-.42 9.08-1.02-1-8.59-1.87-10.02-1.99l.53-.64c1.34.18 7.61 1.03 8.98 1.64.51-1.65-.09-2.54.22-7.74.04-.32-.21-.57-.21-.88-.06-.39.18.04.52-2.57.09-.62.56-4.05.12-4.53-.99-1.27-16.81-3.72-33.47-.77-1.58.28-7.62 1.73-8.55 2.51-.6.82-.14 2.03.51 5.83.13.89.26 1.79.43 2.68.24.02.61-.05.7.24.09.39-.3.67-.33 1.04-.08.68.13.81.12 4.44 0 .49.09.98.18 1.46 3.18-2.02 19.18-4.43 26.5-3.69-.26.24-.52.49-.79.72-.3-.14-.45-.5-.77-.59-.26.13-.31.52-.58.62-2.23 0-4.46.01-6.68.22-.32.06-.47-.31-.66-.5-.5.24-.11.53-.95.69-.69.09-12.98.58-16.47 3.57a6.07 6.07 0 0 1-.4-2.19c-.16-4.32-.25-3.67-.29-4.61.27-.33.63-.56.9-.89.09-.14-.02-.26-.16-.19-.3.09-.6.2-.91.26-1.85-9.6-2.9-9.68 2.51-10.98.12.18.24.36.39.52.15-.21.21-.47.25-.73 1.91-.76 4.16-1.08 4.92-1.23a97.82 97.82 0 0 1 19.13-1.46Z" class="cls-1"/><path d="M43.82 18.9c.14.07.28.15.41.24-.15.34-1.97 3.63-2.02 3.73a.88.88 0 0 0-.5.14l.25.25c-.96 1.69-2.39 4.24-2.69 4.59-.17.02-.32-.08-.46-.14 1.06-2.02 3.83-7.02 4.01-7.45-.8.31-1.66.59-2.52.39.56 2.11-2.24 2.58-2.8 1.17.11-.16.22-.33.27-.52l-.36.13c.08-.68.26-1.28.92-1.48-.02-.23.24-.25.41-.28.83-.14 1.39.75 3.08.41l.05.22c.47-.6 1.01-.33 1.96-1.39Zm-5.14 1.43c-.67.34-.7 1.46-.01 1.79.65.28 1.4-.44 1.17-1.1a.95.95 0 0 0-1.16-.69ZM32.83 19.79c1.77-.34 2.97 1.39 3.25 3.24.12.51-.41.83-.5 1.3.23-.01.36-.21.52-.35-.02 2.25-1.62 4.71-3.73 4.03.07-.22.13-.44.11-.66-.17.15-.32.32-.46.5-1.47-.66-2.11-2.66-1.84-4l.28-.14c-.09-.12-.19-.23-.27-.36.29-1.36 1.29-3.71 2.59-3.22l.04-.33Zm-.65 1.19c-2.82 3.47 1.05 9.25 2.68 4.68 1.13-3.64-1.3-6.39-2.68-4.68ZM25.37 20.74l.07-.3c1.92-.26 3.08 1.32 3.37 3.15.13.52-.35.87-.47 1.34.22-.03.36-.21.51-.36.03 2.3-1.59 4.89-3.64 4.13.06-.21.11-.42.12-.64-.18.15-.32.32-.47.5-1.53-.68-2.18-2.74-1.95-3.99l.25-.1a3.03 3.03 0 0 0-.24-.38c.32-1.32 1.21-3.67 2.45-3.34Zm.48 7.24c2.07.43 3.07-5.47.48-6.74-2.4-1.2-3.53 6.11-.48 6.74ZM20.33 21.19c.03.24.07.47.07.71 0 .26-.44.43-.28.69.15-.03.25-.15.37-.24.2 1.6.48 3.2.71 4.8.07.27-.29.43-.24.7.11-.03.22-.09.33-.13.07.3.13.61.21.91.27 0 .55-.05.81.03.17.06.23.3.05.38-.23.08-.47.08-.7.12-1.19.14-2.13.69-1.97.06.27-.19.62-.22.92-.33-.05-.73-.19-1.44-.29-2.16.09-.13.18-.27.25-.41a3 3 0 0 0-.32-.07c-.26-1.36-.46-3.1-.68-3.55-.3.27-.53.61-.82.89-.13.15-.49.08-.43-.16.11-.19.28-.34.42-.51 1.45-1.79.64-1.7 1.6-1.73ZM44.28 24.69c-.05.13-.26.3-.06.41.15-.03.24-.17.36-.25 2 2.22-2.06 4.05-2.53 1.31l.22-.17c-.45-.44.65-1.77 2.02-1.29Zm-1.41 1.57c0 1.44 2.2.62 1.63-.62-.43-1.07-1.86-.37-1.63.62ZM54.03 25.09c2.96.48 7.29 1.6 9.97 3.03-1.86 1.51-6.19 4.76-6.76 5.41.28.75.58 1.5.84 2.25-.18.09-.37.16-.55.27-.14.3.51.3.84.46.2.23 2.12 5.25 2.41 6.32-1.2-.42-2.35-.96-3.58-1.27-6.98-1.96-11.15-.85-13.36-2.75 1.99-2.99 9.16.58 9.88-4.89.35-3.04-.27-4.1.3-8.82Zm.52.75c-.56 3.3.46 6.02-.39 9.21-1.05 4.01-6.9 2.2-9.38 3.62 1.36.74 3.47.72 7.24 1.13 3.23.48 4.45.6 7.48 1.71 0-.22-.05-.44-.15-.64-.72-1.5-1.16-3.12-1.97-4.57-.11-.21-.11-.45-.16-.68-.62-2.62-1.38-1.74.9-3.67.22-.18 2.24-2.06 4.31-3.59-1.42-.93-5.94-2.07-7.87-2.52ZM9.84 26.59c1.36 6.54.64 10.47 2.03 11.29 2.23 1.35 7.57-.07 8.91 1.82-2.17 2.25-6.96 1.14-14.22 4.04-.17.06-.35.15-.53.16-.15-.11-.28-.25-.41-.37l-.18.13c-.11.82.1.48-1.16 1.12 2.37-8.32 2.77-9.11 2.78-9.48-.02-.03-6.44-4.43-7.05-4.93 2.23-1.5 7.27-3.23 9.84-3.77Zm-8.4 3.9c.4.23.81.44 1.19.69 6.25 4.12 5.18 3.67 4.6 5.98-1.68 6.32-1.67 5.47-1.83 6.44.16-.06 3.46-1.52 4.73-1.85 2.75-.84 8.22-.91 9.6-2.09-1.12-.46-2.36-.46-3.55-.46-8.43.18-4.66-3.56-6.8-11.71a48.54 48.54 0 0 0-7.93 3.01ZM42.17 30.42a12.32 12.32 0 0 1 4.23-2.49c-.38.56-.29.12-3.56 3.62-.18.03-.37.05-.54.13l.15.29c-.44.45-.83.96-1.25 1.43a.8.8 0 0 0-.37-.09c-.21.2.03.54-.18.75-3.72 4.57-3.5 4.94-4.21 5.83-.15-.01-.31-.06-.46 0-.06.2.07.41.06.62l-2.98 4.91c-.56.85-1 1.78-1.59 2.61a3.1 3.1 0 0 0-.4-.13c.02.2.06.39.1.59-.33.3-.79.43-1.23.37-.39-.26-.54-.73-.75-1.13a4.09 4.09 0 0 1-.61-.92c-.75-.79-.43-.91-3.09-3.77-1.04-1.11-1.65-1.07-1.11-1.71.2-.32.54.06.82 0-.08-.2-.24-.36-.36-.53.35-.34 1.46-1.31 1.93-1.21.1.09.19.2.28.31l-.26.38c.28.09.58.14.82.32.32.22 1.84 1.8 2.66 3.18.82-1.1.89-1.51 3.8-5.33.16-.24.49-.08.73-.14l-.22-.39c1.51-2.18 3.56-4.1 5.35-5.81.17.11.35.2.55.25 0-.22-.05-.44-.04-.66.52-.48 1.1-.91 1.72-1.26Z" class="cls-1"/><path d="M43.71 33.83c.84.1 7.93.98 8.45 1.65-1.54 1.73-6.54.28-8.58 2.35.01-1.34.07-2.67.13-4.01Zm.52 2.85c2.27-1.08 5.16-.56 6.65-1.14l-6.62-1.13-.04 2.28ZM13.63 36.51a48.65 48.65 0 0 1 6.94-1.76c.17 1.33.38 2.67.46 4.01-2.51-1.75-6.3-.44-8.51-1.45.33-.32.67-.65 1.12-.8Zm.48.53c1.45.19 4.07-.14 6.07.62 0-.77-.1-1.53-.15-2.3-.69.17-4.9 1.32-5.93 1.67Z" class="cls-1"/></svg>