<svg xmlns="http://www.w3.org/2000/svg" id="Layer_1" viewBox="0 0 64 64"><defs><style>.cls-1{fill:#a7885b}</style></defs><path d="M38.17 15.15c.49-.02.71.53 1.13.64.33-.1.57-.39.88-.52.5-.31 8.7.86 8.8.87.02.17-.03.42.17.51.31.02.46-.44.79-.31 3.07.65 4.14.7 3.9 2.98-.16 1.55-.47 5.19-.68 5.75-.29.06-.64-.12-.89.11.26.22.55.4.83.59-.39 5.16.26 7.12-.4 9.1-1.01-1.01-8.63-1.84-10.05-1.98 2.52-3.06 5.95-5.07 4.39-5.71-1.92-.85-7.75 4.43-8.88 5.42-.34-.08-.45-.51-.79-.56-.25.13-.34.44-.55.62-2.27-.04-4.54.03-6.8.2-.33.03-.39-.54-.7-.44-.16.17-.24.42-.45.54-.92.37-4.7.01-10.6 1.41-5.48 1.27-5.22 1.42-6.27 2.26-.38-.95-.39-1.99-.41-3-.03-2.76-.28-3.12-.26-3.72.14-.51.86-.64.92-1.18-.38.05-.73.23-1.11.29-1.08-5.77-.99-5.81-1.35-7.07-.15-.54-.3-1.12-.13-1.67.17-.53.5-1.05 1.01-1.31.57-.29 2.57-.85 3.01-.9l.29.48c.28-.15.22-.5.38-.73 1.27-.79 10.85-2.69 23.8-2.7Zm5.43 3.46c-.1.07-1.36 1.59-3.24 1.08-.58-.16-1.16-.52-1.79-.35-1.54.39-2.05 2.57-.83 3.33 1.18.76 2.99.12 2.99-1.57.45.01.9-.05 1.33-.17-3.62 6.73-3.83 6.73-3.53 6.99.24.2.56.33.87.29.23-.15.36-.41.51-.64 4.89-8.33 4.83-8.31 4.59-8.68-.19-.27-.58-.37-.89-.27Zm-11.22.97c-1.7.42-2.28 2.78-2.61 3.76l.08.27c-.86 3.26 2.89 6.51 5.21 3.96 2.85-3.09 1.04-8.33-1.81-8.17-.29.03-.63 0-.87.19Zm-7.18.54c-.09.04-.14.13-.21.19-1.6.31-2.23 2.94-2.51 3.82.02.09.05.17.09.26-.81 3.2 3.33 7.08 5.86 3.08 1.84-3.12.34-8.05-3.24-7.35Zm-7 2.83c-.13.15-.31.32-.27.55.04.41.58.65.91.43.21-.14.37-.34.55-.52.3 1.74.56 3.48.84 5.22-.32.12-.78.15-.9.53-.12.41.32.8.72.71 2.36-.55 2.25-.39 2.56-.57.32-.21.53-1.08-.87-1.05-1.23-7.36-.89-7.46-1.46-7.43-1.24-.04-.41.34-2.08 2.14Zm25.01 1.33c-1.84.36-2.07 3.14-.09 3.55 2.88.58 3.28-4.17.09-3.55Z" class="cls-1"/><path d="M43.82 18.92c.14.06.28.13.41.21-.62 1.27-1.36 2.48-2.04 3.72a.83.83 0 0 0-.48.15l.24.26c-.16.31-2.31 4.13-2.72 4.61-.14-.06-.29-.11-.42-.19.49-.99 3.72-6.78 4.01-7.43-.8.31-1.67.57-2.53.4.49 2.43-2.59 2.29-2.75 1.16.09-.18.19-.34.24-.54l-.39.16c.05-.58.27-1.24.84-1.49l.26.19a2.73 2.73 0 0 0-.23-.25c.82-.72 1.57.52 3.37.24.11-.04.18.04.24.12.59-.53 1.15-.39 1.95-1.31Zm-5.14 1.38c-.62.35-.73 1.43-.06 1.78.67.34 1.69-.49 1.04-1.46-.22-.29-.63-.4-.99-.33ZM32.85 19.78c1.82-.29 3 1.47 3.23 3.33.12.5-.58.78-.44 1.27l.46-.41c-.05 2.24-1.65 4.76-3.73 4 .06-.19.16-.37.13-.57-.23.01-.32.27-.46.42-1.68-.71-2.12-3-1.83-4.01l.25-.1a2.7 2.7 0 0 0-.27-.39c.35-1.4 1.28-3.62 2.6-3.2l.07-.33Zm-.94 1.58a5.2 5.2 0 0 0-.07 5.01c1.56 2.61 3.97-.69 3.15-3.62-.66-2.74-2.29-2.77-3.09-1.39ZM25.45 20.44c1.9-.26 3.07 1.31 3.35 3.22.09.45-.32.77-.47 1.16l.02.14c.21-.08.33-.27.49-.42.04 2.25-1.57 4.87-3.65 4.15.08-.21.15-.42.16-.64-.22.11-.37.3-.51.49-1.67-.71-2.19-3.03-1.94-4l.25-.08a4.98 4.98 0 0 0-.25-.38c.32-1.19.8-2.86 2.05-3.37.13 0 .26.03.4.05l.09-.31Zm-1.39 5.18c.91 4.22 4.33 2.37 3.77-1.8-1.39-5.47-4.57-1.43-3.77 1.8Z" class="cls-1"/><path d="M38.86 20.65c.33-.13.68.27.65.59.04.38-.45.7-.77.49-.35-.27-.24-.87.12-1.08ZM34.74 23.27c.36 3.98-2.53 4.87-3.05 1.69-.55-3.44 2.01-6.42 3.05-1.69ZM19.82 21.23c.15-.06.31-.03.46 0 .09.23.1.49.08.74-.1.17-.24.32-.34.5.12.22.32 0 .44-.11.21 1.65.49 3.3.74 4.95-.13.18-.29.35-.29.59l.36-.19c.07.32.12.64.2.95.33.01.8-.17 1.01.19-.06.24-.34.22-.53.26-2.13.24-1.84.69-2.34.21.27-.24.63-.29.96-.39-.06-.73-.19-1.45-.29-2.17.1-.13.19-.28.28-.43a4.6 4.6 0 0 1-.35-.1c-.12-.61-.47-3.05-.67-3.53-.33.29-.56.7-.94.94-.14.09-.25-.07-.36-.13.42-.57.91-1.09 1.25-1.72.11-.18.19-.37.31-.55ZM26.63 21.91c.57.54.67 1.35.85 2.07.36 2.9-1.63 5.12-2.82 2.4-.9-2.11.18-6.09 1.97-4.47ZM42.14 25.75c.2-.9 1.29-1.38 2.12-1.05l-.15.34.28.06.15-.24c1.36 1.33-.03 3.15-1.69 2.51a1.45 1.45 0 0 1-.8-1.21l.2-.18-.12-.22Zm.71.11c.06 2.06 1.92.99 1.71 0-.06-.48-.58-.88-1.06-.73-.34.11-.48.46-.66.74ZM54.04 25.08c3.13.56 7.16 1.53 9.96 3.03-1.16.96-6.23 4.79-6.77 5.38.24.77.61 1.5.84 2.27-.12.17-.38.14-.51.29-.06.27.21.22.83.46.32.66 1.86 4.57 2.41 6.3-1.1-.37-2.17-.86-3.28-1.19-7.47-2.1-11.42-.91-13.67-2.83 2.01-2.57 7.89-.29 9.47-3.36 1.01-2.06.08-5.43.71-10.35Z" class="cls-1"/><path d="M43.59 25.45c.4-.15.79.41.6.77-.12.3-.56.6-.85.34-.29-.33-.12-.91.25-1.11ZM9.84 26.59c1.86 8.91-.07 10.82 3.2 11.75 2.35.52 6.33-.3 7.73 1.33-.91 1.06-2.99 1.43-4.27 1.65-7.8 1.22-8.23 1.89-10.48 2.59-.15-.14-.27-.38-.51-.36-.17.15-.1.39-.12.59-.28.35-.74.43-1.12.63 2.35-8.42 2.8-8.98 2.77-9.49-.02-.02-6.12-4.22-7.05-4.92 2.63-1.69 6.8-3.04 9.84-3.77ZM46.4 27.92c-.47.62-.15-.05-3.46 3.5-.16.19-.43.17-.65.27l.15.28c-.44.45-.84.93-1.25 1.4a2.25 2.25 0 0 0-.36-.06c-.15.16-.07.4-.08.6-4.44 5.69-3.45 4.81-4.21 5.85-.13.21-.4.07-.59.1.03.22.1.43.11.65-.05.11-4.53 7.45-4.58 7.52-.13-.02-.33-.23-.4-.03.02.17.07.34.1.51-.34.25-.78.43-1.21.34-.37-.23-1.07-1.74-2.34-3.33-1.65-2.4-3.34-3.36-3.45-3.79a.97.97 0 0 1 .37-.54c.23.04.45.12.68.14-.11-.19-.25-.36-.37-.54.44-.39 1.31-1.17 1.89-1.21.12.08.22.19.31.31l-.26.39c1.12.35.92.39 1.74 1.25.67.67 1.24 1.44 1.73 2.24.07-.1 3.5-5.16 3.95-5.46l.57-.01-.21-.39c1.35-1.99 3.64-4.21 5.35-5.81.17.11.35.22.56.22-.03-.21-.07-.41-.09-.62 1.28-1.03 4.27-3.34 6-3.76ZM43.72 33.83c.98.11 9.15 1.14 8.35 1.71-1.51 1.62-6.24.22-8.48 2.28.01-1.33.08-2.66.13-3.99Z" class="cls-1"/><path d="M20.57 34.77c.17 1.33.36 2.66.46 4-2.34-1.8-6.15-.42-8.49-1.48.29-.31.62-.6 1.02-.74.98-.39 3.67-1.16 7.01-1.78Z" class="cls-1"/></svg>