<?xml version="1.0" encoding="utf-8"?>
<!-- Generator: Adobe Illustrator 26.5.0, SVG Export Plug-In . SVG Version: 6.00 Build 0)  -->
<svg version="1.1" id="Layer_1" xmlns="http://www.w3.org/2000/svg" xmlns:xlink="http://www.w3.org/1999/xlink" x="0px" y="0px"
	 viewBox="0 0 36 36" style="enable-background:new 0 0 36 36;" xml:space="preserve">
<style type="text/css">
	.st0{fill:#FFFFFF;}
</style>
<g>
	<g>
		<path class="st0" d="M7.4,8.9c0.1-0.1,0.3-0.2,0.4-0.2c5.7,0,11.5,0,17.2,0c0.7,0,1.4,0.2,2.1,0.5c1.3,0.5,2.4,1.2,3.4,2.1
			c1.6,1.3,2.9,3,4,4.7c0.5,0.9,1,1.7,1.5,2.6c0.1,0.1,0.1,0.3,0.1,0.4c0,1.1,0,2.1,0,3.2c0,0.3,0,0.5-0.1,0.8
			c-0.2,0.8-0.8,1.4-1.6,1.6c-0.4,0.1-0.8,0.1-1.2,0.1c-0.2,0-0.4,0-0.6,0c-0.1,0.9-0.7,1.7-1.4,2.1c-0.7,0.4-1.6,0.6-2.4,0.4
			c-0.9-0.2-1.6-0.8-2-1.6c-0.4-0.7-0.4-1.5-0.3-2.2c0.1-0.6,0.5-1.1,0.9-1.5c0.5-0.5,1.2-0.8,2-0.8c0.9,0,1.8,0.3,2.4,1
			c0.4,0.4,0.7,1,0.8,1.6c0.4,0,0.8,0,1.1,0c0.5,0,1-0.4,1.2-0.9c0-0.2,0-0.4,0-0.5c0-1,0-2.1,0-3.1c0-0.1,0-0.1-0.1-0.2
			c-0.9-1.8-2-3.5-3.4-5.1c-1.2-1.3-2.5-2.5-4.1-3.3c-0.7-0.4-1.5-0.6-2.4-0.7c-5.7,0-11.5,0-17.2,0c-0.2,0-0.4-0.1-0.5-0.2
			C7.2,9.3,7.2,9.1,7.4,8.9z M29.4,22.1c-0.6,0-1.2,0.4-1.6,0.9c-0.3,0.5-0.4,1-0.3,1.6c0.1,0.5,0.5,1,1,1.3
			c0.4,0.3,0.9,0.3,1.4,0.2c0.5-0.1,1-0.4,1.3-0.8c0.3-0.4,0.4-0.9,0.4-1.5c-0.1-0.6-0.4-1.1-0.8-1.4C30.3,22.2,29.8,22.1,29.4,22.1
			z"/>
	</g>
	<path class="st0" d="M25.1,11.3c0.3-0.1,0.7,0.1,0.7,0.5c0,1,0,2.1,0,3.1c0,0.4,0.2,0.9,0.5,1.2c0.3,0.3,0.6,0.4,1,0.4
		c1.5,0,2.9,0,4.4,0c0.2,0,0.4,0.1,0.5,0.3c0.1,0.2,0.1,0.5-0.1,0.6c-0.1,0.1-0.3,0.2-0.4,0.2c-1.5,0-2.9,0-4.4,0
		c-0.6,0-1.2-0.2-1.6-0.5c-0.5-0.4-0.8-1.1-0.9-1.7c-0.1-0.3,0-0.6,0-0.9c0-0.9,0-1.8,0-2.6C24.7,11.5,24.9,11.3,25.1,11.3z"/>
	<path class="st0" d="M2.9,11.5c0.1,0,0.3,0,0.4,0c3.2,0,6.4,0,9.6,0c0.2,0,0.4,0.1,0.5,0.3c0.1,0.2,0.1,0.4,0,0.6
		c-0.1,0.2-0.3,0.3-0.5,0.2c-3.3,0-6.5,0-9.8,0c-0.3,0-0.5-0.2-0.5-0.5C2.5,11.9,2.7,11.6,2.9,11.5z"/>
	<path class="st0" d="M4.8,14.3c0.1,0,0.1,0,0.2,0c3.6,0,7.2,0,10.8,0c0.3,0,0.6,0.2,0.6,0.5c0,0.3-0.3,0.6-0.6,0.5
		c-3.6,0-7.2,0-10.8,0c-0.3,0-0.5-0.2-0.5-0.5C4.3,14.6,4.5,14.4,4.8,14.3z"/>
	<path class="st0" d="M0.4,17.1c0.1,0,0.1,0,0.2,0c4.1,0,8.2,0,12.3,0c0.3,0,0.6,0.3,0.5,0.5c0,0.3-0.3,0.5-0.5,0.5
		c-4,0-8.1,0-12.1,0c-0.2,0-0.4,0-0.5-0.1C0,18-0.1,17.7,0,17.4C0.1,17.3,0.2,17.2,0.4,17.1z"/>
	<g>
		<path class="st0" d="M4,20c0.1-0.1,0.3-0.1,0.4-0.1c1.9,0,3.7,0,5.6,0c0.2,0,0.4,0.1,0.5,0.3c0.1,0.2,0,0.5-0.2,0.7
			C10.2,20.9,10.1,21,10,21c-0.5,0-1,0-1.4,0c0,0.5,0,1,0,1.6c0,0.6,0.5,1.1,1.1,1.1c0.5,0,1,0,1.5,0c0.1-0.6,0.4-1.2,0.8-1.6
			c0.4-0.4,0.9-0.7,1.5-0.9c0.7-0.2,1.4-0.1,2,0.2c0.7,0.3,1.3,0.9,1.6,1.6c0.5,1,0.3,2.3-0.4,3.2c-0.4,0.5-1,0.9-1.7,1.1
			c-0.8,0.2-1.6,0.1-2.3-0.3c-0.8-0.4-1.4-1.3-1.6-2.2c-0.5,0-0.9,0-1.4,0c-0.6,0-1.1-0.2-1.5-0.6c-0.4-0.4-0.7-1-0.7-1.6
			c0-0.5,0-1,0-1.5c-1.1,0-2.1,0-3.2,0c-0.2,0-0.4-0.1-0.5-0.2C3.7,20.5,3.8,20.1,4,20z M14,22.1c-0.7,0-1.3,0.4-1.6,1
			c-0.3,0.5-0.4,1.1-0.2,1.6c0.2,0.5,0.5,1,1,1.2c0.5,0.3,1.1,0.3,1.6,0.1c0.5-0.2,0.9-0.5,1.1-0.9c0.2-0.4,0.3-0.9,0.3-1.3
			c-0.1-0.5-0.4-1-0.8-1.3C15,22.2,14.5,22.1,14,22.1z"/>
	</g>
	<path class="st0" d="M18.5,23.6c2.2,0,4.5,0,6.7,0c0,0.4,0,0.7,0,1.1c-2.2,0-4.5,0-6.7,0C18.5,24.3,18.5,24,18.5,23.6z"/>
</g>
</svg>
