<?xml version="1.0" encoding="utf-8"?>
<!-- Generator: Adobe Illustrator 26.5.0, SVG Export Plug-In . SVG Version: 6.00 Build 0)  -->
<svg version="1.1" id="Layer_1" xmlns="http://www.w3.org/2000/svg" xmlns:xlink="http://www.w3.org/1999/xlink" x="0px" y="0px"
	 viewBox="0 0 36 36" style="enable-background:new 0 0 36 36;" xml:space="preserve">
<path class="st0" d="M10.5,0.1C8.6,0.2,7.3,0.5,6.2,1C5,1.4,4,2.1,3,3.1s-1.6,2-2.1,3.2c-0.4,1.1-0.7,2.5-0.8,4.4S0,13.1,0,18
	s0,5.5,0.1,7.4s0.4,3.2,0.8,4.4C1.4,31,2.1,32,3.1,33s2,1.6,3.2,2.1c1.1,0.4,2.5,0.7,4.4,0.8S13.1,36,18,36s5.5,0,7.4-0.1
	s3.2-0.4,4.4-0.8C31,34.6,32,34,33,32.9s1.6-2,2.1-3.2c0.4-1.1,0.7-2.5,0.8-4.4C36,23.5,36,22.9,36,18s0-5.5-0.1-7.4
	s-0.4-3.2-0.8-4.4C34.6,5,34,4,32.9,3s-2-1.6-3.2-2.1c-1.1-0.4-2.5-0.7-4.4-0.8S22.9,0,18,0S12.5,0,10.5,0.1 M10.8,32.7
	C9,32.6,8,32.3,7.4,32.1c-0.8-0.3-1.4-0.7-2.1-1.3c-0.6-0.6-1-1.2-1.4-2.1c-0.2-0.6-0.5-1.6-0.6-3.3c-0.1-1.9-0.1-2.5-0.1-7.3
	s0-5.4,0.1-7.3C3.4,9,3.7,8.1,3.9,7.4C4.3,6.6,4.7,6,5.3,5.3s1.2-1,2.1-1.4C8,3.7,8.9,3.5,10.7,3.4c1.9-0.1,2.5-0.1,7.3-0.1
	s5.4,0,7.3,0.1C27,3.4,28,3.7,28.6,4c0.8,0.3,1.4,0.7,2.1,1.3s1,1.2,1.4,2.1c0.2,0.6,0.5,1.6,0.6,3.3c0.1,1.9,0.1,2.5,0.1,7.3
	s0,5.4-0.1,7.3c-0.1,1.8-0.4,2.7-0.6,3.3c-0.3,0.8-0.7,1.4-1.3,2.1s-1.2,1-2.1,1.4c-0.6,0.2-1.6,0.5-3.3,0.6
	c-1.9,0.1-2.5,0.1-7.3,0.1S12.7,32.7,10.8,32.7 M25.4,8.4c0,1.2,1,2.2,2.2,2.2s2.2-1,2.2-2.2s-1-2.2-2.2-2.2l0,0
	C26.4,6.2,25.4,7.2,25.4,8.4 M8.8,18c0,5.1,4.2,9.2,9.3,9.2s9.2-4.2,9.2-9.3S23.1,8.7,18,8.7C12.9,8.8,8.7,12.9,8.8,18 M12,18
	c0-3.3,2.7-6,6-6s6,2.7,6,6s-2.7,6-6,6S12,21.3,12,18L12,18"/>
</svg>
