<?xml version="1.0" encoding="UTF-8"?>
<svg id="Layer_1" xmlns="http://www.w3.org/2000/svg" version="1.1" viewBox="0 0 512 512">
  <!-- Generator: Adobe Illustrator 29.8.3, SVG Export Plug-In . SVG Version: 2.1.1 Build 3)  -->
  <defs>
    <style>
      .st0 {
        fill: #a7885b;
      }
    </style>
  </defs>
  <path class="st0" d="M256,0C114.6,0,0,114.6,0,256s114.6,256,256,256,256-114.6,256-256S397.4,0,256,0ZM361,144.3l-47.3,6.2-2.2-11.2,49.5,5ZM307.7,128h0c-1.8-3.7-3.9-7.3-5.2-11l37.4-14.4-32.2,25.4ZM309,63.9l-19.1,42.4c-2.8-2.6-6.6-5.5-9.2-8.3l28.3-34.1ZM243.5,167.9c-19.1-19.1-14.2-50.1-5.8-58.5,2.7-2.8,11.9-3.9,16.1-3.9,36.7,0,63.2,49,31.2,77.3h0c-15.4,1.8-30.8-3.7-41.6-14.9ZM257.8,32.4v-.4s0,0,0,0v.4c0,0,6.5,60.9,6.5,60.9l-13.8-.6,7.2-60.3ZM222.8,84.5l-10.9,7-11.4-29.8,22.3,22.8ZM240.6,89.7c-45.2,46.4-15.7,94.9,27.9,103.1-13.9,10.9-41.3,1.8-51.2-8-35.4-35.9-15.7-85.6,23.3-95.1ZM197.3,106.5h0l-5.4,11.7-24.2-22.4,29.7,10.7ZM187.4,137.4l1.4,12.2-42.2-5,40.8-7.2ZM60.3,273.4h-.2c28.5-50,57-85.8,129.8-111.6,3.1,7.9,6.5,15.6,10.7,22.9l-36.2,23.2,42-16.2c1.3,1.2,8.3,6.7,14.9,10.8-3.2,6.2-6.3,12.5-10.2,18.3-37.5-6.7-103.5,11.4-150.8,52.6ZM255.4,479.9s0,0,0,.1h-.1s0,0,0-.1c-8.9-25.9-38.8-249.5-38.8-249.6,6.6-6.9,10.8-15.8,17.2-22.7l16.5,2.5,5.4,87.2,6.5-87.8c4.2-1.8,8.6-3.3,12.9-5.1,5.4,8.3,11.6,16.1,17.4,24.1.4,7.9-23.6,195.8-37.1,251.4ZM299,217.7h0c-5-5.3-8.1-12.1-12.2-18,3.3-3.6,6.5-7.2,9.9-10.8l50.2,19-43-27.5c3-6.9,6-13.7,8.1-21,29.9,13.8,114.8,47.2,140.1,114.8-35.6-34.3-99.3-58.4-153-56.5Z"/>
  <polygon points="361 144.3 313.7 150.5 311.5 139.3 361 144.3"/>
  <path d="M307.7,128h0c-1.8-3.7-3.9-7.3-5.2-11l37.4-14.4-32.2,25.4Z"/>
  <path d="M309,63.9l-19.1,42.4c-2.8-2.6-6.6-5.5-9.2-8.3l28.3-34.1Z"/>
  <polygon points="264.4 93.3 250.6 92.7 257.8 32.4 264.4 93.3"/>
  <polygon points="222.8 84.5 211.9 91.5 200.5 61.7 222.8 84.5"/>
  <polygon points="197.3 106.5 197.2 106.5 191.8 118.2 167.6 95.8 197.3 106.5"/>
  <polygon points="188.8 149.6 146.6 144.6 187.4 137.4 188.8 149.6"/>
  <path d="M268.5,192.8c-13.9,10.9-41.3,1.8-51.2-8-35.4-35.9-15.7-85.6,23.3-95.1-45.2,46.4-15.7,94.9,27.9,103.1Z"/>
  <path d="M285,182.8h0c-15.4,1.8-30.8-3.7-41.6-14.9-19.1-19.1-14.2-50.1-5.8-58.5,2.7-2.8,11.9-3.9,16.1-3.9,36.7,0,63.2,49,31.2,77.3Z"/>
  <path d="M452,274.2c-35.6-34.3-99.3-58.4-153-56.5h0c-5-5.3-8.1-12.1-12.2-18,3.3-3.6,6.5-7.2,9.9-10.8l50.2,19-43-27.5c3-6.9,6-13.7,8.1-21,29.9,13.8,114.8,47.2,140.1,114.8Z"/>
  <path d="M255.4,479.9c-8.9-25.9-38.8-249.5-38.8-249.6,6.6-6.9,10.8-15.8,17.2-22.7l16.5,2.5,5.4,87.2,6.5-87.8c4.2-1.8,8.6-3.3,12.9-5.1,5.4,8.3,11.6,16.1,17.4,24.1.4,7.9-23.6,195.8-37.1,251.4Z"/>
  <path d="M221.3,202.5c-3.2,6.2-6.3,12.5-10.2,18.3-37.5-6.7-103.5,11.4-150.8,52.6h-.2c28.5-50,57-85.8,129.8-111.6,3.1,7.9,6.5,15.6,10.7,22.9l-36.2,23.2,42-16.2c1.3,1.2,8.3,6.7,14.9,10.8Z"/>
</svg>