<!-- original fill = #fbba00  -->
<svg xmlns="http://www.w3.org/2000/svg" viewBox="0 0 369.25 31.53"><path d="M99.85,31.08H91l9.9-19.72H96.68l-9.9,19.72h-9L90.29,6.23h22.07Z" fill="#fff"/><path d="M130.59,23.33c-1.93,3.87-4.29,8.1-14,8.1-5,0-10.44-1.2-9.53-5.6a14.78,14.78,0,0,1,1.45-3.69l4.52-9c2.68-5.32,6.43-7.32,13.57-7.32s10.3,1.93,9.51,5.7a14.34,14.34,0,0,1-1.42,3.59Zm-3.74-10.49a4,4,0,0,0,.37-.91c.18-.88-.48-1.37-1.79-1.37-1.75,0-2.43.66-3.5,2.81l-5.54,11a3.66,3.66,0,0,0-.37.95c-.18.84.52,1.37,1.82,1.37s2.15-.17,3.16-2.22Z" fill="#fff"/><path d="M143.51,6.23h8.89l-9.9,19.71h3.05l9.91-19.71h9l-9.91,19.71h3.06l9.9-19.71h9L164,31.08H131Z" fill="#fff"/><path d="M199.46,11h-6.75l-10.12,20.1h-8.94L183.77,11H177l2.38-4.75h22.43Z" fill="#fff"/><path d="M208.31,6.23H219c-.53,2.53-5,24.85-5,24.85h-8.63l1.76-5.6h-5.44l-3.82,5.6h-9.12ZM208.46,21l3-10-6.84,10Z" fill="#fff"/><path d="M247.92,21.89l-.64,1.34c-1.5,3.13-2.69,4.75-4.52,6-2.31,1.58-5.57,2.32-9.93,2.32-6.87,0-9.74-1.76-9-5.49a16.8,16.8,0,0,1,1.72-4.19l4.21-8.3c3-6,6.52-7.82,13.94-7.82,6.83,0,10,1.8,9.3,5.21a8.06,8.06,0,0,1-.75,2.08l-1.17,2.36h-8.76l1.15-2.29a5.08,5.08,0,0,0,.42-1.16c.16-.78-.51-1.23-1.76-1.23-1.89,0-2.34.63-3.41,2.74l-5.42,10.7a5.18,5.18,0,0,0-.48,1.23c-.17.81.45,1.27,1.85,1.27s2.26-.53,3.13-2.29l1.23-2.46Z" fill="#fff"/><path d="M270.24,6.23c4.68,0,8.83.35,7.92,4.71A15.11,15.11,0,0,1,277,14c-3.32,6.65-6.44,8.06-13.72,8.06h-3.46l-4.52,9h-8.9l12.5-24.85Zm-8.07,11.12h1.71c2.29,0,2.95-.35,3.79-2l1.13-2.22a3.54,3.54,0,0,0,.32-.88c.2-1-.32-1.26-1.94-1.26h-1.79Z" fill="#fff"/><path d="M301.51,11h-11.1l-2.08,4.19h2.47c4.67,0,8.82.35,7.91,4.72a14.59,14.59,0,0,1-1.18,3.1c-3.32,6.65-6.45,8.06-13.73,8.06H271.44L284,6.23h20ZM282.73,26.32h1.7c2.3,0,2.95-.35,3.79-2l1.14-2.22a4.4,4.4,0,0,0,.32-.88c.2-.95-.32-1.27-1.94-1.27h-1.8Z" fill="#fff"/><path d="M310.05,31.08l5.52-11L307,27.84l-1.62,3.24h-9L308.94,6.23h9l-5.45,10.84L321,9.32l1.55-3.09h8.89L319,31.08Z" fill="#fff"/><path d="M338.92,24.53c-3.06,6-5,6.55-12.87,6.55h-4.23l2.39-4.76H327c1.53,0,2.26-.24,3.19-2.11l9.05-18h8.9Z" fill="#fff"/><path d="M366.81,11.05H358.4l-2.53,5h7.77l-2.38,4.75h-7.77l-2.76,5.46h8.41l-2.4,4.79H339.4L351.9,6.23h17.35Z" fill="#fff"/><path d="M45.29,0a1.18,1.18,0,0,1,1,.62,1.07,1.07,0,0,1,0,1h0a5.67,5.67,0,0,1-3.55,2.89L38.22,5.74H60.56a1.16,1.16,0,0,1,1,.56,1.07,1.07,0,0,1,.06,1h0a5.68,5.68,0,0,1-3.53,2.88l-5.2,1.45H76.14a1.12,1.12,0,0,1,1,.55,1.1,1.1,0,0,1,.08,1h0c-1.25,1.94-1.76,2.51-4,3.1L51.83,22,8.22,4.71C7.49,4.42,7,4,7.25,3.42L8.8.34A.5.5,0,0,1,9.31,0Z" fill="#fff"/><path d="M73.58,20.1a1.17,1.17,0,0,0-1.14-1.05l-.22,0h0l-.1,0L51.68,24.55,6.26,6.72a.47.47,0,0,0-.64.17L.14,17.6a1.21,1.21,0,0,0,0,1.22,1.33,1.33,0,0,0,1.14.67h16l-2,3.9a1.23,1.23,0,0,0,.16,1.36,1.38,1.38,0,0,0,1,.52h16l-2,3.93a1.25,1.25,0,0,0,.1,1.29,1.36,1.36,0,0,0,1.09.59H68.14l5.34-10.43h0A1,1,0,0,0,73.58,20.1Z" fill="#fff"/><path d="M45.29,0a1.18,1.18,0,0,1,1,.62,1.07,1.07,0,0,1,0,1h0a5.67,5.67,0,0,1-3.55,2.89L38.22,5.74H60.56a1.16,1.16,0,0,1,1,.56,1.07,1.07,0,0,1,.06,1h0a5.68,5.68,0,0,1-3.53,2.88l-5.2,1.45H76.14a1.12,1.12,0,0,1,1,.55,1.1,1.1,0,0,1,.08,1h0c-1.25,1.94-1.76,2.51-4,3.1L51.83,22,8.22,4.71C7.49,4.42,7,4,7.25,3.42L8.8.34A.5.5,0,0,1,9.31,0Z" fill="#fff"/><path d="M73.58,20.1a1.17,1.17,0,0,0-1.14-1.05l-.22,0h0l-.1,0L51.68,24.55,6.26,6.72a.47.47,0,0,0-.64.17L.14,17.6a1.21,1.21,0,0,0,0,1.22,1.33,1.33,0,0,0,1.14.67h16l-2,3.9a1.23,1.23,0,0,0,.16,1.36,1.38,1.38,0,0,0,1,.52h16l-2,3.93a1.25,1.25,0,0,0,.1,1.29,1.36,1.36,0,0,0,1.09.59H68.14l5.34-10.43h0A1,1,0,0,0,73.58,20.1Z" fill="#fff"/></svg>
