<?xml version="1.0" encoding="UTF-8"?><svg enable-background="new 0 0 36 36" version="1.1" viewBox="0 0 36 36" xml:space="preserve" xmlns="http://www.w3.org/2000/svg"><path d="m7.4 8.9c0.1-0.1 0.3-0.2 0.4-0.2h17.2c0.7 0 1.4 0.2 2.1 0.5 1.3 0.5 2.4 1.2 3.4 2.1 1.6 1.3 2.9 3 4 4.7 0.5 0.9 1 1.7 1.5 2.6 0.1 0.1 0.1 0.3 0.1 0.4v3.2c0 0.3 0 0.5-0.1 0.8-0.2 0.8-0.8 1.4-1.6 1.6-0.4 0.1-0.8 0.1-1.2 0.1h-0.6c-0.1 0.9-0.7 1.7-1.4 2.1s-1.6 0.6-2.4 0.4c-0.9-0.2-1.6-0.8-2-1.6-0.4-0.7-0.4-1.5-0.3-2.2 0.1-0.6 0.5-1.1 0.9-1.5 0.5-0.5 1.2-0.8 2-0.8 0.9 0 1.8 0.3 2.4 1 0.4 0.4 0.7 1 0.8 1.6h1.1c0.5 0 1-0.4 1.2-0.9v-0.5-3.1c0-0.1 0-0.1-0.1-0.2-0.9-1.8-2-3.5-3.4-5.1-1.2-1.3-2.5-2.5-4.1-3.3-0.7-0.4-1.5-0.6-2.4-0.7h-17.2c-0.2 0-0.4-0.1-0.5-0.2 0-0.4 0-0.6 0.2-0.8zm22 13.2c-0.6 0-1.2 0.4-1.6 0.9-0.3 0.5-0.4 1-0.3 1.6 0.1 0.5 0.5 1 1 1.3 0.4 0.3 0.9 0.3 1.4 0.2s1-0.4 1.3-0.8 0.4-0.9 0.4-1.5c-0.1-0.6-0.4-1.1-0.8-1.4-0.5-0.2-1-0.3-1.4-0.3z"/><path d="m25.1 11.3c0.3-0.1 0.7 0.1 0.7 0.5v3.1c0 0.4 0.2 0.9 0.5 1.2s0.6 0.4 1 0.4h4.4c0.2 0 0.4 0.1 0.5 0.3s0.1 0.5-0.1 0.6c-0.1 0.1-0.3 0.2-0.4 0.2h-4.4c-0.6 0-1.2-0.2-1.6-0.5-0.5-0.4-0.8-1.1-0.9-1.7-0.1-0.3 0-0.6 0-0.9v-2.6c-0.1-0.4 0.1-0.6 0.3-0.6z"/><path d="m2.9 11.5h0.4 9.6c0.2 0 0.4 0.1 0.5 0.3s0.1 0.4 0 0.6-0.3 0.3-0.5 0.2h-9.8c-0.3 0-0.5-0.2-0.5-0.5-0.1-0.2 0.1-0.5 0.3-0.6z"/>
<path d="m4.8 14.3h0.2 10.8c0.3 0 0.6 0.2 0.6 0.5s-0.3 0.6-0.6 0.5h-10.8c-0.3 0-0.5-0.2-0.5-0.5-0.2-0.2 0-0.4 0.3-0.5z"/><path d="m0.4 17.1h0.2 12.3c0.3 0 0.6 0.3 0.5 0.5 0 0.3-0.3 0.5-0.5 0.5h-12.1c-0.2 0-0.4 0-0.5-0.1-0.3 0-0.4-0.3-0.3-0.6 0.1-0.1 0.2-0.2 0.4-0.3z"/><path d="m4 20c0.1-0.1 0.3-0.1 0.4-0.1h5.6c0.2 0 0.4 0.1 0.5 0.3s0 0.5-0.2 0.7c-0.1 0-0.2 0.1-0.3 0.1h-1.4v1.6c0 0.6 0.5 1.1 1.1 1.1h1.5c0.1-0.6 0.4-1.2 0.8-1.6s0.9-0.7 1.5-0.9c0.7-0.2 1.4-0.1 2 0.2 0.7 0.3 1.3 0.9 1.6 1.6 0.5 1 0.3 2.3-0.4 3.2-0.4 0.5-1 0.9-1.7 1.1-0.8 0.2-1.6 0.1-2.3-0.3-0.8-0.4-1.4-1.3-1.6-2.2h-1.4c-0.6 0-1.1-0.2-1.5-0.6s-0.7-1-0.7-1.6v-1.5h-3.2c-0.2 0-0.4-0.1-0.5-0.2-0.1-0.4 0-0.8 0.2-0.9zm10 2.1c-0.7 0-1.3 0.4-1.6 1-0.3 0.5-0.4 1.1-0.2 1.6s0.5 1 1 1.2c0.5 0.3 1.1 0.3 1.6 0.1s0.9-0.5 1.1-0.9 0.3-0.9 0.3-1.3c-0.1-0.5-0.4-1-0.8-1.3s-0.9-0.4-1.4-0.4z"/><path d="m18.5 23.6h6.7v1.1h-6.7v-1.1z"/></svg>
