<?xml version="1.0" encoding="utf-8"?>
<!-- Generator: Adobe Illustrator 26.5.0, SVG Export Plug-In . SVG Version: 6.00 Build 0)  -->
<svg version="1.1" id="Layer_1" xmlns="http://www.w3.org/2000/svg" xmlns:xlink="http://www.w3.org/1999/xlink" x="0px" y="0px"
	 viewBox="0 0 36 36" style="enable-background:new 0 0 36 36;" xml:space="preserve">
<g>
	<path d="M31.6,17.6c0.1,0,0.3-0.1,0.4-0.2c0.2-0.1,0.2-0.4,0.1-0.6s-0.3-0.3-0.5-0.3h-4.4c-0.4,0-0.7-0.1-1-0.4
		c-0.3-0.3-0.5-0.8-0.5-1.2v-3.1c0-0.4-0.4-0.6-0.7-0.5c-0.2,0-0.4,0.2-0.3,0.6v2.6c0,0.3-0.1,0.6,0,0.9c0.1,0.6,0.4,1.3,0.9,1.7
		c0.4,0.3,1,0.5,1.6,0.5H31.6z"/>
	<path d="M3.1,12.6h9.8c0.8,0,0.8-1.1,0-1.1H3.1c-0.5,0-0.5,0.4-0.5,0.5C2.6,12.3,2.7,12.6,3.1,12.6z"/>
	<path d="M5,15.3h10.8c0.7,0,0.7-1,0-1H5C4.3,14.3,4.3,15.3,5,15.3z"/>
	<path d="M12.9,17.1H0.5c-0.2,0-0.5,0.2-0.5,0.5C0,17.8,0.3,18,0.5,18h12.4C13.5,18,13.5,17.1,12.9,17.1z"/>
	<rect x="18.4" y="23.5" width="6.7" height="1.1"/>
	<path d="M14.2,21.2c-1.5,0-2.7,1-3,2.4H9.7c-0.6,0-1.1-0.5-1.1-1.1v-1.6H10c0.7,0,0.7-1.1,0-1.1H4.3c-0.8,0-0.8,1.2,0,1.2h3.2v1.5
		c0,0.6,0.3,1.2,0.7,1.6c0.4,0.4,0.9,0.6,1.5,0.6h1.5c0.2,1.4,1.5,2.5,3,2.5c1.7,0,3-1.4,3-3C17.2,22.5,15.8,21.2,14.2,21.2z
		 M14.2,26.2c-1.1,0-2-0.9-2-2c0-1.1,0.9-2,2-2c1.1,0,2,0.9,2,2C16.2,25.3,15.3,26.2,14.2,26.2z"/>
	<path d="M35.5,17.9c-0.4-0.6-0.8-1.3-1.1-2c-1.1-1.7-2.4-3.4-4-4.7c-1-0.9-2.1-1.6-3.4-2.1c-0.7-0.3-1.4-0.5-2.1-0.5H7.8
		c-0.9,0-0.9,1.2,0,1.2h17c0.9,0.1,1.7,0.3,2.4,0.7c1.6,0.8,2.9,2,4.1,3.3c1.3,1.5,2.4,3.1,3.2,4.8c0.4,0.8,0.3,0,0.3,2.7v0.9
		c0,0.5,0.1,0.6-0.3,1c-0.2,0.2-0.5,0.4-0.9,0.4h-1.1c-0.3-1.4-1.5-2.4-2.9-2.4c-1.7,0-3,1.3-3,3c0,1.7,1.3,3,3,3
		c1.5,0,2.8-1.1,3-2.6c0.8,0,1.3,0,1.8-0.1c0.4-0.1,0.8-0.3,1-0.6c0.5-0.5,0.7-1.1,0.7-1.8V19C36,18.7,36,18.7,35.5,17.9z
		 M29.6,26.2c-1.1,0-2-0.9-2-2c0-1.1,0.9-2,2-2c1.1,0,2,0.9,2,2C31.6,25.3,30.7,26.2,29.6,26.2z"/>
</g>
</svg>
