<?xml version="1.0" encoding="utf-8"?>
<!-- Generator: Adobe Illustrator 26.5.0, SVG Export Plug-In . SVG Version: 6.00 Build 0)  -->
<svg version="1.1" id="Layer_1" xmlns="http://www.w3.org/2000/svg" xmlns:xlink="http://www.w3.org/1999/xlink" x="0px" y="0px"
	 viewBox="0 0 64 64" style="enable-background:new 0 0 64 64;" xml:space="preserve">
<g>
	<g>
		<path d="M31,8.7c0,6.3,0,15.5-0.1,18.4c0,2.8-0.1,4.6,0,5.3L44.3,40l0.4,0.2l5.9,3.4c1.2,0.6,2.2-1.1,1-1.8l-5.7-3.3l-1-0.5
			L33,31.1V8.7C33,7.3,31,7.4,31,8.7z"/>
	</g>
</g>
<path d="M32,4c15.4,0,28,12.6,28,28S47.4,60,32,60S4,47.4,4,32S16.6,4,32,4 M32,0C14.3,0,0,14.3,0,32s14.3,32,32,32s32-14.3,32-32
	S49.7,0,32,0L32,0z"/>
</svg>
