<?xml version="1.0" encoding="utf-8"?> <svg version="1.1" id="Layer_1" xmlns="http://www.w3.org/2000/svg" xmlns:xlink="http://www.w3.org/1999/xlink" x="0px" y="0px" viewBox="0 0 64 64" xml:space="preserve">
<g><path d="M51.1,43.8c-0.2,0-0.3-0.1-0.5-0.2l-19.1-11c-0.2-0.1-0.4-0.2-0.6-0.2c-0.1-0.7,0-2.5,0-5.3
C31,24.2,31,15,31,8.7c0-0.9,0.8-1,1-1c0.2,0,1,0,1,1v22.4l18.6,10.7c0.5,0.3,0.6,0.8,0.5,1.1C51.9,43.3,51.6,43.8,51.1,43.8
L51.1,43.8z" /></g><path d="M32,0C14.3,0,0,14.3,0,32c0,17.7,14.3,32,32,32c17.7,0,32-14.3,32-32C64,14.3,49.7,0,32,0z M32,60
C16.6,60,4,47.4,4,32C4,16.6,16.6,4,32,4c15.4,0,28,12.6,28,28C60,47.4,47.4,60,32,60z" /></svg>
