<?xml version="1.0" encoding="utf-8"?>
<!-- Generator: Adobe Illustrator 26.5.0, SVG Export Plug-In . SVG Version: 6.00 Build 0)  -->
<svg version="1.1" id="Layer_1" xmlns="http://www.w3.org/2000/svg" xmlns:xlink="http://www.w3.org/1999/xlink" x="0px" y="0px"
	 viewBox="0 0 36 36" style="enable-background:new 0 0 36 36;" xml:space="preserve">
<style type="text/css">
	.st0{fill:#FFFFFF;}
</style>
<g>
	<path class="st0" d="M22.9,18L35,5.9c1.4-1.4,1.4-3.7-0.1-5c-1.4-1.3-3.6-1.1-4.9,0.3C27.8,3.3,23,8,18,13.1L5.9,1
		c-1.4-1.4-3.7-1.4-5,0.1C-0.4,2.5-0.2,4.7,1.2,6C3.3,8.2,8,12.9,13.1,18c-5.1,5.1-9.9,9.8-12,11.9c-1.3,1.3-1.5,3.5-0.3,4.9
		c1.3,1.5,3.6,1.5,5,0.1l12.2-12c5.1,5.1,9.8,9.8,12,12c1.3,1.3,3.5,1.5,4.9,0.3c1.5-1.3,1.5-3.6,0.1-5L22.9,18z"/>
</g>
</svg>
