<svg xmlns="http://www.w3.org/2000/svg" xml:space="preserve" id="Layer_1" x="0" y="0" viewBox="0 0 512 512"><style>.st0{fill:#a7885b}</style><path d="M255.9 0c1.2 4.6 1.3 9.4 2.2 14.1 1.2 10.4 3.3 20.6 4 31.1-4.3.3-8.6.1-12.8.2 2-12.4 5-41.1 6.6-45.4m-60.1 26.4c2.9 1.5 22.4 25.1 24.4 27.6-3.4 1.9-6.6 4-9.9 6-1.7-3.4-11-24-14.5-33.6m115.9 4c1.3-1.5 2.4-3.3 4.3-4.1-2 6.1-5 11.9-7.3 17.9-2.7 5.3-4.4 11-7.4 16.1-3.1-2.3-6.3-4.5-9.6-6.4 1.5-2.6 17.3-20.3 20-23.5" class="st0"/><path d="M296.2 63.1c25 17.3 36.2 52.4 23.6 82.1-27.6 69.5-138.3 53.2-132.8-34.8 6.2-52.8 68.4-77.7 109.2-47.3m-88.9 16.8c-31.7 40.6-6.4 101.6 51.3 101.5 39.5.9 79.2-49.4 48.2-97.8-25.6-35.6-74.5-34.3-99.5-3.7" class="st0"/><path d="M159.7 65c2.3.7 31.5 12.5 33.6 13.4-1.1 3.6-3.3 6.9-5.3 10.1C161.6 67 161.8 67.4 159.7 65m188 1.5a25 25 0 0 1 4.3-1.6c-.6 2.2-.6 1.2-23 19.4-1.9 1.5-3.5 3.6-5.8 4.3-1.4-3.6-3.7-6.7-5.2-10.2 5.6-2 11.1-4.4 16.6-6.5 4.3-1.9 8.8-3.3 13.1-5.4m-107.2-1.4c-.6 1.7-2.2 2.6-3.5 3.8-40.2 33.9-21.1 94 29.3 102.1l-.4 1.1c-72.1 15.6-92.9-88.6-25.4-107" class="st0"/><path d="M283.5 80.7c38.5 22 22.8 79.4-4.8 82.2-23.2 3.2-45.6-12.3-51.8-35.5-9-35.8 22.6-66.7 56.6-46.7m-101.7 32.2v12.3c-2.6-.2-37.9-5.1-40-6.6 0 0 35.3-5.8 40-5.7m148-.1c6.7.3 11.8 1.4 40.1 5.7-.1.2-.3.7-.5.9-10.5 1.6-33.9 5.5-39.6 5.7-.2-4.1-.1-8.2 0-12.3m-148 27.4c4.9 16.8 7.3 8.3-10 25.8-4.3 4.3-51.3 12.4-92.5 53.6C62 236.9 57.8 246.9 54 249.9c3.6-9.1 17.7-34.4 33.1-50 35.3-37.5 87.6-58.6 94.7-59.7m144 12.1c1.4-4.2 2.8-8.3 4.6-12.3 6 1.7 11.5 4.7 17.3 7.1 42.8 19.2 81.4 47.5 103.2 89 2.5 4.7 5.5 9.2 7.1 14.4-27.5-35.9-39.7-48.8-84.6-71-29.3-13.1-29.6-9.5-33.6-13.7-4.5-4.7-9.8-8.7-14-13.5m-134.1 3.6c.7.7 7.2 10.1 7.2 10.1-.2.1-41.5 20.9-42.7 21.3 2.4-2.8.1 0 35.5-31.4m121 10.2c2.4-3.4 4.7-6.7 7-10.2 5.5 4 34.5 30 35.4 31-.1 0-42.4-20.7-42.4-20.8" class="st0"/><path d="M201.3 174.7c1.9 1.4 4.2 2.7 5.6 4.6-.1 2.1-5.2 16.5-6.6 18.8-5.1.6-10.3.2-15.4.3 1.2-2.6 3.3-4.6 4.3-7.3-6.8 4-6.1 7.6-13.7 8.5-60.7 2.5-111.1 43.5-111.4 43.7 7.2-17.4 63-59.4 96-66.3-4.7 6.2-15.2 12.8-15.1 17.5 3.2 1 .4 1.1 40.5-15.5 13.5-5.2 14.3-5.6 15.8-4.3m112.2-.3c34.2 11.5 50.3 22.4 53.3 20.1 2.6-2.7-12.2-12.6-14.9-17.6 60.6 21.1 91.9 57.1 96.1 66.2-.6-.3-44.7-37.2-107.4-43.3-2.9-.3-6.2.1-8.6-1.9-3.2-2.1-6-4.8-9.5-6.4 1.1 2.4 2.8 4.4 4 6.6-1.5.1-13.6.6-15 0-1.3-2.1-6-16.1-6.6-18.5 7-6.3 6.6-5.8 8.6-5.2m-98.2 6.7q5.1 3.15 10.5 6c-1 1.7-24.2 32.8-25.7 34.1.4-2.4 15.1-39.8 15.2-40.1m70.2 6c3.7-1.8 7.4-3.7 10.8-5.9.4.9 15.1 38.7 15.3 39.6-1.2-.9-25.2-32.4-26.1-33.7m-36.2 6.1c4.4-.1 8.9.2 13.3.1l-6.6 82.4c-1.2-3-4.4-63.6-6.7-82.5m-20.3 220c-.3-7.2 1.7-135.3 2.9-136.2 3.4-3 7.7-4.9 10.7-8.4-3.7 1-7.3 2.8-11.1 3.6-.8-42.4 3-33.1-7.6-48.8-2.3-3.5-5.4-6.5-7.7-10 4.4-6.9 9.5-13.3 14.7-19.6 3.8 1.1 7.9 1.5 11.5 3.2 2.4 8.9 6.7 69.5 9.4 92.6L256 512c-9.1-26-24.2-71.4-27-98.8m30.5 90.9c9.1-26.9 18.3-53.9 22.4-82 1.7-8.4 1.5-17 1.4-25.5-.3-3.4-2.8-95.2-2.9-157.5 0-3.3 1.5-6.3 3.2-9 11.6-18.1 13.7-14.9 10.5-19.3-4.5-5.5-8.7-11.3-13-17-3.4.6-6.6 1.6-10 2.5-2.1.8-2-.7-3.4 10-4.4 39.8-6.8 63.4-8.1 79.5l-3 226.3c1.5-2.6 2-5.4 2.9-8" class="st0"/></svg>