<svg xmlns="http://www.w3.org/2000/svg" version="1.1" xmlns:xlink="http://www.w3.org/1999/xlink" width="16" height="16"><svg version="1.1" id="SvgjsSvg1013" xmlns="http://www.w3.org/2000/svg" xmlns:xlink="http://www.w3.org/1999/xlink" x="0px" y="0px" viewBox="0 0 16 16" style="enable-background:new 0 0 16 16;" xml:space="preserve">
<style type="text/css">
	.st0{fill:#A7885B;}
</style>
<g>
	<path d="M16,8c0,4.4-3.6,8-8,8c0,0,0,0,0,0c-2.2,0-4.2-0.9-5.7-2.3C0.9,12.2,0,10.2,0,8c0-2.2,0.9-4.2,2.3-5.7
		c1.2-1.2,2.7-2,4.4-2.2h0C7,0.1,7.2,0,7.4,0c0.1,0,0.3,0,0.4,0h0.1C7.9,0,8,0,8,0c0.2,0,0.4,0,0.6,0c0.2,0,0.3,0,0.5,0.1h0
		c1.8,0.2,3.3,1.1,4.5,2.3C15.1,3.8,16,5.8,16,8z"></path>
</g>
<g>
	<g>
		<g>
			<path class="st0" d="M12.6,4.3c0,0,0-0.1,0-0.1c0-0.3,0-0.6,0-0.9c0-0.1-0.1-0.1-0.2-0.1c-0.1,0.1-0.3,0.3-0.5,0.3
				c-0.2,0.1-0.4,0.1-0.6,0.1c-0.1,0-0.2,0-0.2,0c0,0,0,0,0,0c-0.2,0-0.4,0-0.5,0c-0.2,0-0.4,0-0.6,0c-0.1,0-0.2,0-0.3,0
				c-0.1,0-0.1,0-0.2,0c-0.2,0-0.5,0-0.7,0c0,0,0-0.1,0-0.1c0-0.1,0-0.3-0.1-0.4c0,0,0,0,0.1,0c0-0.2,0-0.5,0-0.7c0-0.2,0-0.3,0-0.5
				c0,0,0,0-0.1-0.1c0,0,0.1,0,0.1,0c0-0.2,0-0.4,0-0.6c0-0.2,0.1-0.5,0.2-0.7C8.9,0.4,9,0.4,9.1,0.2c0,0,0-0.1,0-0.2h0
				C8.9,0,8.8,0,8.6,0C8.5,0,8.5,0,8.4,0C8.2,0,8,0,7.9,0H7.8c-0.1,0-0.3,0-0.4,0c0,0,0,0,0,0C7.2,0,7,0.1,6.8,0.1h0
				c0,0,0,0.1,0,0.1C6.8,0.3,7,0.3,7,0.4C7.1,0.6,7.3,0.8,7.3,1c0,0.3,0.1,0.5,0,0.8c0,0.3,0,0.6,0,0.9c0,0.3,0,0.6,0,0.9
				c-0.2,0-0.4,0-0.6,0c-0.1,0-0.1,0-0.2,0.1c0,0,0-0.1-0.1-0.1c-0.2,0-0.4,0-0.5,0c-0.2,0-0.4,0-0.6,0c-0.2,0-0.5,0-0.8,0
				c-0.2,0-0.4,0-0.5-0.1C4,3.4,4,3.4,3.9,3.3C3.8,3.3,3.7,3.2,3.6,3.1c-0.1-0.1-0.2,0-0.3,0c0,0.1,0,0.2,0,0.4c0,0.2,0,0.3,0,0.5
				c0,0.1,0,0.3,0,0.4c0,0.1,0,0.3,0,0.4c0,0.1,0,0.2,0,0.3c0,0.1,0,0.2,0.1,0.2c0,0,0.1,0,0.1,0c0,0,0.1-0.1,0.1-0.1
				C3.8,5.1,3.9,5.1,4.1,5c0.2-0.1,0.4-0.1,0.6-0.1c0.3,0,0.5,0,0.8,0c0.3,0,0.6,0,0.9,0c0.2,0,0.3,0,0.5,0c0.1,0,0.3,0,0.4,0
				c0.1,0.3,0,0.6,0.1,0.9v1.4c0.1,0,0.2,0,0.3,0c0.1,0,0.2,0,0.4,0c0.1,0,0.2,0,0.2,0c0.2,0,0.3,0,0.5,0c0-0.2,0-0.4,0-0.6
				c0-0.1,0-0.2,0-0.3c0,0,0,0,0-0.1c0-0.1,0-0.3,0-0.5c0,0,0,0-0.1,0c0.1-0.1,0-0.3,0-0.4c0-0.1,0-0.3,0.1-0.3c0.1,0,0.2,0,0.4,0
				c0.2,0,0.3,0,0.5,0c0,0,0-0.1,0-0.1C9.7,4.9,9.8,4.8,10,4.8c0.2,0,0.4,0,0.5,0c0.1,0,0.1,0,0.2,0c0,0,0,0,0,0c0.2,0,0.3,0,0.5,0
				c0.1,0,0.3,0.1,0.4,0c0,0,0,0,0,0.1c0.3,0,0.6,0.1,0.8,0.3c0.1,0,0.1,0.1,0.1,0.2c0,0,0.1,0,0.2,0c0-0.1,0-0.2,0-0.2
				C12.6,4.8,12.6,4.6,12.6,4.3z M7.2,0.3C7.1,0.4,7.1,0.3,7.2,0.3C7.2,0.3,7.2,0.3,7.2,0.3z M7.3,0.4C7.2,0.4,7.2,0.4,7.3,0.4
				C7.3,0.4,7.3,0.4,7.3,0.4z M3.5,5C3.5,4.9,3.5,5,3.5,5C3.5,5,3.4,5,3.5,5z M3.6,4.8C3.6,4.8,3.6,4.8,3.6,4.8
				C3.7,4.7,3.6,4.9,3.6,4.8z M3.7,3.6C3.7,3.5,3.7,3.5,3.7,3.6C3.8,3.5,3.8,3.6,3.7,3.6z M3.8,4C3.8,4,3.8,4,3.8,4
				C3.8,4.1,3.8,4,3.8,4z M3.8,4.5C3.8,4.5,3.9,4.5,3.8,4.5C3.8,4.6,3.8,4.5,3.8,4.5z M3.9,3.6C3.8,3.6,3.8,3.6,3.9,3.6L3.9,3.6
				C3.9,3.5,3.9,3.6,3.9,3.6z M4,3.7C4,3.7,4,3.8,4,3.7C4,3.8,4,3.8,4,3.7z M4.1,4.6C4,4.6,4,4.6,4.1,4.6C4.1,4.6,4.1,4.6,4.1,4.6z
				 M4,3.5C4.1,3.5,4.1,3.5,4,3.5C4,3.6,4,3.5,4,3.5z M4.2,4.8C4.2,4.8,4.2,4.8,4.2,4.8C4.2,4.7,4.2,4.8,4.2,4.8z M4.4,4.8
				C4.4,4.8,4.4,4.8,4.4,4.8c0,0,0.1,0,0.1,0H4.4z M4.6,4.8C4.7,4.8,4.7,4.8,4.6,4.8C4.6,4.8,4.6,4.8,4.6,4.8z M4.8,4.1
				C4.8,4.1,4.7,4.1,4.8,4.1C4.8,4,4.8,4.1,4.8,4.1z M4.8,4.3C4.9,4.2,4.9,4.3,4.8,4.3C4.8,4.4,4.8,4.3,4.8,4.3z M4.9,4.7
				C4.8,4.7,4.8,4.6,4.9,4.7C4.9,4.6,4.9,4.6,4.9,4.7z M5,3.9C5,3.9,5,3.9,5,3.9C5,4,5,3.9,5,3.9z M5.4,3.7C5.3,3.7,5.3,3.7,5.4,3.7
				C5.4,3.6,5.4,3.7,5.4,3.7z M5.6,3.8C5.7,3.8,5.7,3.8,5.6,3.8C5.6,3.9,5.6,3.9,5.6,3.8z M5.7,4.4C5.7,4.4,5.7,4.4,5.7,4.4
				C5.7,4.5,5.6,4.4,5.7,4.4z M5.9,4.3C5.9,4.3,5.9,4.3,5.9,4.3C5.9,4.3,5.9,4.3,5.9,4.3z M5.9,3.9C5.9,3.9,5.9,3.9,5.9,3.9
				C5.9,3.9,5.9,3.9,5.9,3.9z M5.9,4.1C6,4.1,6,4.1,5.9,4.1C5.9,4.2,5.9,4.2,5.9,4.1z M6,3.7C6,3.7,6,3.7,6,3.7C6,3.7,5.9,3.7,6,3.7
				z M6.1,4.6C6.1,4.6,6.2,4.6,6.1,4.6C6.1,4.7,6.1,4.6,6.1,4.6z M6.2,4.4C6.2,4.4,6.3,4.4,6.2,4.4C6.2,4.5,6.2,4.5,6.2,4.4z
				 M6.3,4.4C6.3,4.4,6.3,4.3,6.3,4.4C6.4,4.3,6.3,4.5,6.3,4.4z M6.5,4.7C6.5,4.7,6.5,4.7,6.5,4.7C6.5,4.6,6.5,4.6,6.5,4.7z
				 M6.7,4.8C6.7,4.7,6.8,4.8,6.7,4.8C6.7,4.8,6.6,4.8,6.7,4.8z M6.8,4C6.9,4,6.9,4,6.8,4C6.8,4,6.8,4,6.8,4z M6.8,4.1
				C6.9,4.1,6.9,4.1,6.8,4.1C6.8,4.1,6.8,4.1,6.8,4.1z M6.9,3.8C6.9,3.8,6.9,3.8,6.9,3.8C6.9,3.9,6.8,3.9,6.9,3.8z M8.8,0.3
				C8.9,0.3,8.9,0.4,8.8,0.3C8.8,0.4,8.8,0.3,8.8,0.3z M8.7,0.1C8.7,0.1,8.7,0.1,8.7,0.1C8.7,0.1,8.7,0.1,8.7,0.1z M8.6,0.8
				c0,0-0.1,0.1-0.1,0.1C8.5,0.8,8.5,0.8,8.6,0.8C8.6,0.8,8.6,0.8,8.6,0.8z M8.5,0.5C8.5,0.5,8.5,0.5,8.5,0.5
				C8.5,0.6,8.4,0.5,8.5,0.5z M8.5,0.7C8.5,0.8,8.5,0.7,8.5,0.7C8.5,0.7,8.5,0.7,8.5,0.7z M8.5,0.3C8.4,0.3,8.4,0.3,8.5,0.3
				C8.5,0.3,8.5,0.3,8.5,0.3z M8.4,1.6C8.4,1.6,8.4,1.6,8.4,1.6C8.4,1.7,8.3,1.6,8.4,1.6z M8.4,4.3C8.3,4.3,8.3,4.3,8.4,4.3
				C8.4,4.3,8.4,4.3,8.4,4.3z M8.3,3.4C8.3,3.4,8.3,3.4,8.3,3.4C8.3,3.3,8.4,3.4,8.3,3.4z M8.3,2.6C8.2,2.6,8.2,2.6,8.3,2.6
				C8.3,2.5,8.3,2.5,8.3,2.6z M8.1,5.5C8.1,5.6,8,5.5,8.1,5.5C8.1,5.5,8.2,5.5,8.1,5.5z M8.1,4.6C8.1,4.7,8,4.6,8.1,4.6
				C8.1,4.6,8.1,4.6,8.1,4.6z M8.1,2.1C8.1,2.1,8.1,2.1,8.1,2.1C8.1,2.1,8,2.1,8.1,2.1z M8.1,0.3C8.1,0.3,8.1,0.4,8.1,0.3
				C8.1,0.4,8,0.4,8.1,0.3z M8,0.5C8,0.5,8,0.6,8,0.5C8,0.6,7.9,0.5,8,0.5z M7.9,1.4C7.9,1.4,7.8,1.4,7.9,1.4
				C7.9,1.3,7.9,1.4,7.9,1.4z M7.9,3.7C7.8,3.7,7.8,3.6,7.9,3.7C7.9,3.6,7.9,3.6,7.9,3.7z M7.8,0.6c0,0.1-0.1,0.1-0.1,0.1
				C7.8,0.6,7.8,0.5,7.8,0.6z M7.7,1C7.7,1,7.8,1,7.7,1C7.7,1.1,7.7,1,7.7,1z M7.7,2.5C7.7,2.5,7.6,2.5,7.7,2.5
				C7.7,2.4,7.7,2.5,7.7,2.5z M7.7,0.7C7.7,0.7,7.8,0.7,7.7,0.7C7.7,0.8,7.6,0.7,7.7,0.7z M7.6,2.2C7.7,2.2,7.7,2.2,7.6,2.2
				C7.6,2.2,7.6,2.2,7.6,2.2z M7.3,0.2C7.4,0.2,7.4,0.2,7.3,0.2C7.3,0.3,7.3,0.3,7.3,0.2z M7.4,4C7.3,4,7.3,4,7.4,4
				C7.4,3.9,7.4,3.9,7.4,4z M7.4,4.2C7.4,4.2,7.4,4.2,7.4,4.2C7.4,4.3,7.3,4.3,7.4,4.2z M7.4,4C7.5,4,7.5,4,7.4,4C7.4,4,7.4,4,7.4,4
				z M7.5,2.7C7.5,2.7,7.5,2.8,7.5,2.7C7.5,2.8,7.5,2.8,7.5,2.7z M7.5,5.5C7.5,5.5,7.5,5.5,7.5,5.5C7.5,5.5,7.6,5.5,7.5,5.5z
				 M7.5,4.2C7.6,4.2,7.6,4.2,7.5,4.2C7.5,4.3,7.5,4.3,7.5,4.2z M7.6,6.4C7.6,6.4,7.6,6.4,7.6,6.4C7.6,6.5,7.6,6.5,7.6,6.4z M7.6,5
				C7.7,5,7.7,5,7.6,5C7.6,5,7.6,5,7.6,5z M7.7,6.5C7.7,6.5,7.7,6.5,7.7,6.5C7.7,6.6,7.6,6.5,7.7,6.5z M7.7,5.7
				C7.7,5.6,7.8,5.7,7.7,5.7C7.7,5.7,7.7,5.7,7.7,5.7z M7.7,2.8C7.7,2.8,7.7,2.8,7.7,2.8C7.8,2.7,7.8,2.8,7.7,2.8z M7.8,3.9
				C7.8,3.9,7.7,3.8,7.8,3.9C7.8,3.8,7.8,3.8,7.8,3.9z M7.8,7C7.8,7,7.8,7,7.8,7C7.8,7,7.8,7,7.8,7z M7.8,6.5
				C7.8,6.5,7.8,6.5,7.8,6.5C7.8,6.5,7.8,6.5,7.8,6.5z M7.8,6.1C7.8,6.1,7.9,6.1,7.8,6.1C7.9,6.2,7.8,6.1,7.8,6.1z M7.9,5
				C7.9,5,8,5.1,7.9,5C7.9,5.1,7.9,5.1,7.9,5z M7.9,5.8C8,5.8,8,5.8,7.9,5.8C7.9,5.8,7.9,5.8,7.9,5.8z M8,6.9C7.9,6.9,7.9,6.9,8,6.9
				C8,6.8,8,6.8,8,6.9z M7.9,2.8C8,2.8,8,2.8,7.9,2.8C8,2.9,7.9,2.8,7.9,2.8z M8,2.2C8,2.2,8,2.2,8,2.2C8,2.2,8,2.2,8,2.2z M8,6.7
				C8.1,6.7,8.1,6.8,8,6.7C8.1,6.8,8,6.8,8,6.7z M8.1,7C8.1,7,8.1,7,8.1,7C8.1,6.9,8.1,6.9,8.1,7z M8.1,2.3C8.2,2.3,8.2,2.3,8.1,2.3
				C8.2,2.4,8.1,2.4,8.1,2.3z M8.2,0.8C8.2,0.8,8.2,0.8,8.2,0.8C8.2,0.7,8.3,0.7,8.2,0.8z M8.2,5.8C8.2,5.8,8.3,5.8,8.2,5.8
				C8.2,5.9,8.2,5.8,8.2,5.8z M8.2,6.7C8.2,6.7,8.2,6.7,8.2,6.7C8.3,6.7,8.3,6.7,8.2,6.7z M8.3,4.9C8.3,4.8,8.3,4.9,8.3,4.9
				C8.3,4.9,8.2,4.9,8.3,4.9z M8.3,3.5C8.3,3.5,8.3,3.5,8.3,3.5C8.3,3.5,8.4,3.5,8.3,3.5z M8.4,6.5C8.3,6.5,8.3,6.5,8.4,6.5
				C8.4,6.4,8.4,6.5,8.4,6.5z M8.4,5.2C8.3,5.2,8.3,5.1,8.4,5.2C8.4,5.1,8.4,5.2,8.4,5.2z M8.5,1.7C8.5,1.7,8.5,1.7,8.5,1.7
				C8.5,1.8,8.4,1.8,8.5,1.7z M8.5,5.8C8.5,5.9,8.5,5.8,8.5,5.8C8.5,5.8,8.5,5.8,8.5,5.8z M8.5,4.5C8.5,4.5,8.5,4.5,8.5,4.5
				C8.5,4.5,8.5,4.5,8.5,4.5z M8.5,1.3C8.5,1.3,8.6,1.3,8.5,1.3C8.5,1.4,8.4,1.4,8.5,1.3z M8.6,7C8.6,6.9,8.6,6.9,8.6,7
				C8.7,6.9,8.6,7,8.6,7z M8.6,4.6C8.6,4.6,8.6,4.6,8.6,4.6C8.6,4.5,8.7,4.6,8.6,4.6z M8.7,4.2C8.7,4.2,8.6,4.1,8.7,4.2
				C8.7,4.1,8.7,4.1,8.7,4.2z M8.8,3.9C8.8,3.8,8.8,3.9,8.8,3.9C8.8,3.9,8.8,3.9,8.8,3.9z M8.9,4.6C8.8,4.7,8.8,4.6,8.9,4.6
				C8.8,4.5,8.9,4.6,8.9,4.6z M8.9,4.2C8.9,4.1,9,4.1,8.9,4.2C8.9,4.2,8.9,4.2,8.9,4.2z M9,4.8C9,4.8,9,4.8,9,4.8
				C9,4.7,9.1,4.8,9,4.8z M9.3,4.8C9.2,4.8,9.2,4.8,9.3,4.8C9.3,4.7,9.3,4.8,9.3,4.8z M9.2,4.6C9.3,4.6,9.3,4.6,9.2,4.6
				C9.2,4.7,9.2,4.7,9.2,4.6z M9.4,4.4C9.4,4.4,9.4,4.4,9.4,4.4C9.4,4.3,9.5,4.3,9.4,4.4z M10,3.9C9.9,4,9.9,3.9,10,3.9
				C9.9,3.8,10,3.9,10,3.9z M10,4.6C10.1,4.6,10.1,4.6,10,4.6C10,4.7,10,4.7,10,4.6z M10.1,4.5C10.1,4.5,10.1,4.5,10.1,4.5
				C10.1,4.6,10,4.6,10.1,4.5z M10.3,3.7C10.2,3.7,10.3,3.6,10.3,3.7C10.4,3.6,10.3,3.7,10.3,3.7z M10.5,4.5
				C10.5,4.5,10.5,4.4,10.5,4.5C10.6,4.4,10.6,4.5,10.5,4.5z M10.6,4.3C10.6,4.3,10.6,4.3,10.6,4.3C10.7,4.3,10.7,4.3,10.6,4.3z
				 M10.7,4.5C10.7,4.5,10.8,4.5,10.7,4.5C10.8,4.6,10.7,4.5,10.7,4.5z M10.7,3.6C10.8,3.6,10.8,3.6,10.7,3.6
				C10.7,3.7,10.7,3.7,10.7,3.6z M11.2,4.3C11.1,4.3,11.1,4.3,11.2,4.3C11.1,4.2,11.2,4.2,11.2,4.3z M11.2,3.8
				C11.2,3.7,11.3,3.8,11.2,3.8C11.2,3.8,11.2,3.8,11.2,3.8z M11.3,4.4C11.2,4.4,11.2,4.3,11.3,4.4C11.3,4.3,11.3,4.4,11.3,4.4z
				 M11.3,4.1C11.4,4.1,11.4,4.2,11.3,4.1C11.3,4.2,11.3,4.2,11.3,4.1z M11.4,4.6C11.4,4.6,11.3,4.6,11.4,4.6
				C11.4,4.5,11.4,4.6,11.4,4.6z M11.4,4.4C11.5,4.4,11.5,4.4,11.4,4.4C11.4,4.5,11.4,4.4,11.4,4.4z M11.5,4.5
				C11.6,4.4,11.6,4.5,11.5,4.5C11.5,4.5,11.5,4.5,11.5,4.5z M11.6,3.8C11.5,3.8,11.5,3.8,11.6,3.8C11.6,3.8,11.6,3.8,11.6,3.8z
				 M11.7,4.2C11.7,4.2,11.8,4.2,11.7,4.2C11.7,4.3,11.7,4.3,11.7,4.2z M11.9,4.7C11.9,4.7,11.8,4.7,11.9,4.7
				C11.9,4.6,12,4.7,11.9,4.7z M12,4.9C12,4.8,12.1,4.8,12,4.9C12.1,4.9,12,4.9,12,4.9z M12.1,4.3C12.1,4.3,12.1,4.3,12.1,4.3
				C12.1,4.3,12,4.3,12.1,4.3z M12.1,3.9C12.1,3.9,12.1,3.9,12.1,3.9C12.1,4,12.1,4,12.1,3.9z M12.2,4.2C12.1,4.3,12.1,4.2,12.2,4.2
				C12.2,4.2,12.2,4.2,12.2,4.2z M12.2,3.8C12.1,3.8,12.1,3.8,12.2,3.8C12.2,3.7,12.2,3.8,12.2,3.8z M12.2,5C12.2,5,12.3,5,12.2,5
				C12.2,5.1,12.2,5,12.2,5z M12.2,4.8C12.3,4.8,12.3,4.8,12.2,4.8C12.2,4.9,12.2,4.9,12.2,4.8z M12.3,3.9
				C12.3,3.9,12.3,3.8,12.3,3.9C12.3,3.8,12.4,3.9,12.3,3.9z"></path>
			<path class="st0" d="M7.9,0L7.9,0c-0.2,0-0.4,0-0.5,0c0,0,0,0,0,0C7.2,0,7,0.1,6.8,0.1h0c0,0,0,0.1,0,0.1C6.8,0.3,7,0.3,7,0.4
				C7.1,0.6,7.3,0.8,7.3,1c0,0.3,0.1,0.5,0,0.8c0,0.3,0,0.6,0,0.9c0,0.3,0,0.6,0,0.9c-0.2,0-0.4,0-0.6,0c0,0,0,0,0,0
				c-0.1,0-0.1,0-0.1,0.1c0,0,0-0.1-0.1-0.1c0,0,0,0,0,0c0,0-0.1,0-0.2,0c-0.1,0-0.2,0-0.2,0c-0.1,0-0.1,0-0.2,0c-0.2,0-0.4,0-0.6,0
				c-0.2,0-0.5,0-0.8,0c-0.2,0-0.4,0-0.5-0.1C4,3.4,4,3.4,3.9,3.3C3.8,3.3,3.7,3.2,3.6,3.1c0,0-0.1,0-0.1,0c-0.1,0-0.1,0-0.2,0.1
				c0,0.1,0,0.2,0,0.4c0,0.2,0,0.3,0,0.5c0,0.1,0,0.3,0,0.4c0,0.1,0,0.3,0,0.4c0,0.1,0,0.2,0,0.3c0,0.1,0,0.2,0.1,0.2
				c0,0,0.1,0,0.1,0c0,0,0,0,0,0c0,0,0.1-0.1,0.1-0.1C3.8,5.1,3.9,5.1,4.1,5c0.2-0.1,0.4-0.1,0.6-0.1c0.1,0,0.3,0,0.4,0s0.3,0,0.4,0
				c0.1,0,0.2,0,0.3,0c0.2,0,0.4,0,0.6,0c0.1,0,0.1,0,0.2,0c0.1,0,0.2,0,0.3,0c0,0,0,0,0.1,0c0,0,0.1,0,0.1,0c0.1,0,0.2,0,0.2,0
				c0.1,0.3,0,0.6,0.1,0.9v1.4c0.1,0,0.2,0,0.3,0c0,0,0.1,0,0.1,0c0.1,0,0.1,0,0.2,0c0,0,0.1,0,0.1,0c0,0,0,0,0,0c0.1,0,0.1,0,0.2,0
				c0,0,0,0,0,0c0,0,0.1,0,0.1,0c0.1,0,0.2,0,0.3,0c0,0,0.1,0,0.1,0c0-0.2,0-0.4,0-0.6c0-0.1,0-0.2,0-0.3c0,0,0,0,0-0.1
				c0-0.1,0-0.3,0-0.5c0,0,0,0-0.1,0c0.1-0.1,0-0.3,0-0.4c0-0.1,0-0.3,0.1-0.3c0,0,0,0,0,0c0.1,0,0.2,0,0.2,0c0,0,0.1,0,0.1,0
				c0.2,0,0.3,0,0.5,0c0,0,0-0.1,0-0.1c0,0.1,0.1,0.1,0.2,0.1c0,0,0.1,0,0.1,0c0,0,0,0,0,0c0.1,0,0.1,0,0.2,0c0.1,0,0.3,0,0.4,0
				c0.1,0,0.1,0,0.2,0c0,0,0,0,0,0c0.1,0,0.1,0,0.2,0c0.1,0,0.1,0,0.2,0c0,0,0.1,0,0.1,0c0.1,0,0.1,0,0.2,0c0.1,0,0.1,0,0.2-0.1
				c0,0,0,0,0,0.1c0,0,0,0,0.1,0c0.3,0,0.5,0.2,0.7,0.3c0.1,0,0.1,0.1,0.1,0.2c0,0,0,0,0.1,0c0,0,0.1,0,0.1,0c0-0.1,0-0.2,0-0.2
				c0-0.3,0-0.5,0-0.8c0,0,0-0.1,0-0.1c0-0.3,0-0.6,0-0.9c0-0.1-0.1-0.1-0.1-0.1c0,0-0.1,0-0.1,0c-0.1,0.1-0.3,0.3-0.5,0.3
				c-0.2,0.1-0.3,0.1-0.5,0.1c0,0-0.1,0-0.1,0c0,0,0,0-0.1,0c0,0-0.1,0-0.1,0c0,0,0,0,0,0c-0.1,0-0.3,0-0.4,0c0,0-0.1,0-0.1,0
				c-0.1,0-0.3,0-0.4,0c-0.1,0-0.1,0-0.2,0c-0.1,0-0.2,0-0.3,0c0,0,0,0,0,0c0,0-0.1,0-0.1,0c0,0,0,0,0,0c0,0-0.1,0-0.1,0
				c-0.1,0-0.3,0-0.4,0c-0.1,0-0.2,0-0.3,0c0,0,0-0.1,0-0.1c0-0.1,0-0.3-0.1-0.4c0,0,0,0,0.1,0c0-0.2,0-0.5,0-0.7c0-0.2,0-0.3,0-0.5
				c0,0,0,0-0.1-0.1c0,0,0.1,0,0.1,0c0-0.2,0-0.4,0-0.6c0-0.2,0.1-0.5,0.2-0.7C8.9,0.4,9,0.4,9.1,0.2c0,0,0-0.1,0-0.2h0
				C8.9,0,8.8,0,8.6,0C8.5,0,8.5,0,8.4,0C8.2,0,8,0,7.9,0L7.9,0z M8.7,0.1C8.7,0.1,8.7,0.1,8.7,0.1C8.7,0.1,8.7,0.1,8.7,0.1
				C8.7,0.1,8.7,0.1,8.7,0.1C8.7,0.1,8.7,0.1,8.7,0.1L8.7,0.1z M7.3,0.3C7.3,0.3,7.3,0.2,7.3,0.3C7.3,0.2,7.3,0.2,7.3,0.3
				C7.4,0.2,7.4,0.2,7.3,0.3C7.4,0.3,7.3,0.3,7.3,0.3L7.3,0.3z M8.4,0.3C8.4,0.3,8.4,0.3,8.4,0.3C8.4,0.3,8.4,0.3,8.4,0.3
				C8.5,0.3,8.5,0.3,8.4,0.3C8.4,0.3,8.4,0.3,8.4,0.3L8.4,0.3z M7.1,0.4C7.1,0.4,7.1,0.3,7.1,0.4C7.1,0.3,7.1,0.3,7.1,0.4
				C7.2,0.3,7.2,0.3,7.1,0.4C7.1,0.4,7.1,0.4,7.1,0.4L7.1,0.4z M8.8,0.4C8.8,0.4,8.8,0.3,8.8,0.4C8.9,0.3,8.9,0.4,8.8,0.4L8.8,0.4z
				 M8.1,0.4C8,0.4,8,0.4,8.1,0.4C8.1,0.3,8.1,0.3,8.1,0.4C8.1,0.3,8.1,0.4,8.1,0.4C8.1,0.4,8.1,0.4,8.1,0.4L8.1,0.4z M7.2,0.4
				C7.2,0.4,7.2,0.4,7.2,0.4C7.2,0.4,7.2,0.4,7.2,0.4C7.3,0.4,7.3,0.4,7.2,0.4C7.3,0.4,7.2,0.4,7.2,0.4L7.2,0.4z M8.5,0.5
				C8.5,0.5,8.4,0.5,8.5,0.5C8.5,0.5,8.5,0.5,8.5,0.5C8.5,0.5,8.5,0.5,8.5,0.5C8.5,0.5,8.5,0.5,8.5,0.5L8.5,0.5z M8,0.6
				C7.9,0.6,7.9,0.5,8,0.6C8,0.5,8,0.5,8,0.6C8,0.5,8,0.6,8,0.6C8,0.6,8,0.6,8,0.6L8,0.6z M7.7,0.7c0,0,0.1-0.1,0.1-0.1c0,0,0,0,0,0
				C7.9,0.6,7.8,0.6,7.7,0.7L7.7,0.7z M8.5,0.7C8.5,0.7,8.5,0.7,8.5,0.7C8.5,0.7,8.5,0.7,8.5,0.7C8.5,0.7,8.5,0.7,8.5,0.7
				C8.5,0.7,8.5,0.7,8.5,0.7L8.5,0.7z M7.7,0.8C7.7,0.8,7.6,0.7,7.7,0.8C7.7,0.7,7.7,0.7,7.7,0.8C7.7,0.7,7.7,0.7,7.7,0.8
				C7.7,0.8,7.7,0.8,7.7,0.8L7.7,0.8z M8.2,0.8C8.2,0.8,8.2,0.8,8.2,0.8C8.2,0.7,8.2,0.7,8.2,0.8C8.3,0.7,8.3,0.7,8.2,0.8
				C8.2,0.8,8.2,0.8,8.2,0.8L8.2,0.8z M8.5,0.8C8.5,0.8,8.5,0.8,8.5,0.8c0,0,0.1-0.1,0.1-0.1C8.6,0.8,8.5,0.8,8.5,0.8L8.5,0.8z
				 M7.7,1.1C7.7,1.1,7.7,1,7.7,1.1C7.7,1,7.7,1,7.7,1.1C7.7,1,7.7,1,7.7,1.1C7.7,1.1,7.7,1.1,7.7,1.1L7.7,1.1z M8.5,1.4
				C8.5,1.4,8.4,1.4,8.5,1.4C8.5,1.3,8.5,1.3,8.5,1.4C8.5,1.3,8.6,1.4,8.5,1.4C8.5,1.4,8.5,1.4,8.5,1.4L8.5,1.4z M7.9,1.4
				C7.9,1.4,7.8,1.4,7.9,1.4C7.8,1.3,7.8,1.3,7.9,1.4C7.9,1.3,7.9,1.4,7.9,1.4C7.9,1.4,7.9,1.4,7.9,1.4L7.9,1.4z M8.4,1.7
				C8.4,1.7,8.3,1.6,8.4,1.7C8.4,1.6,8.4,1.6,8.4,1.7C8.4,1.6,8.4,1.7,8.4,1.7C8.4,1.7,8.4,1.7,8.4,1.7L8.4,1.7z M8.5,1.8
				C8.5,1.8,8.4,1.8,8.5,1.8C8.5,1.7,8.5,1.7,8.5,1.8C8.5,1.7,8.5,1.8,8.5,1.8C8.5,1.8,8.5,1.8,8.5,1.8L8.5,1.8z M8.1,2.1
				C8.1,2.1,8.1,2.1,8.1,2.1C8.1,2.1,8.1,2.1,8.1,2.1C8.1,2.1,8.1,2.1,8.1,2.1C8.1,2.1,8.1,2.1,8.1,2.1L8.1,2.1z M8,2.2
				C8,2.2,8,2.2,8,2.2C8,2.2,8,2.2,8,2.2L8,2.2z M7.6,2.2C7.6,2.2,7.6,2.2,7.6,2.2C7.6,2.2,7.6,2.2,7.6,2.2C7.7,2.2,7.7,2.2,7.6,2.2
				C7.7,2.2,7.7,2.2,7.6,2.2L7.6,2.2z M8.2,2.4C8.1,2.4,8.1,2.4,8.2,2.4C8.1,2.3,8.1,2.3,8.2,2.4C8.2,2.3,8.2,2.3,8.2,2.4
				C8.2,2.4,8.2,2.4,8.2,2.4L8.2,2.4z M7.7,2.5C7.6,2.5,7.6,2.5,7.7,2.5C7.7,2.4,7.7,2.4,7.7,2.5C7.7,2.4,7.7,2.5,7.7,2.5
				C7.7,2.5,7.7,2.5,7.7,2.5L7.7,2.5z M8.3,2.6C8.2,2.6,8.2,2.6,8.3,2.6C8.2,2.5,8.2,2.5,8.3,2.6C8.3,2.5,8.3,2.6,8.3,2.6
				C8.3,2.6,8.3,2.6,8.3,2.6L8.3,2.6z M7.5,2.8C7.5,2.8,7.5,2.8,7.5,2.8C7.5,2.7,7.5,2.8,7.5,2.8L7.5,2.8z M7.7,2.8
				C7.7,2.8,7.7,2.8,7.7,2.8C7.7,2.7,7.7,2.7,7.7,2.8C7.8,2.7,7.8,2.8,7.7,2.8C7.7,2.8,7.7,2.8,7.7,2.8L7.7,2.8z M8,2.9
				C7.9,2.9,7.9,2.8,8,2.9C7.9,2.8,7.9,2.8,8,2.9C8,2.8,8,2.8,8,2.9C8,2.9,8,2.9,8,2.9L8,2.9z M8.3,3.4C8.3,3.4,8.3,3.4,8.3,3.4
				C8.3,3.4,8.3,3.4,8.3,3.4C8.4,3.4,8.4,3.4,8.3,3.4C8.3,3.4,8.3,3.4,8.3,3.4L8.3,3.4z M8.3,3.5C8.3,3.5,8.3,3.5,8.3,3.5
				C8.3,3.5,8.3,3.5,8.3,3.5C8.4,3.5,8.4,3.5,8.3,3.5C8.3,3.5,8.3,3.5,8.3,3.5L8.3,3.5z M4.1,3.5C4,3.5,4,3.5,4.1,3.5
				C4,3.5,4,3.5,4.1,3.5C4.1,3.5,4.1,3.5,4.1,3.5C4.1,3.5,4.1,3.5,4.1,3.5L4.1,3.5z M3.8,3.5C3.8,3.5,3.8,3.5,3.8,3.5
				C3.8,3.5,3.8,3.5,3.8,3.5C3.8,3.5,3.8,3.6,3.8,3.5C3.8,3.6,3.8,3.5,3.8,3.5L3.8,3.5z M3.9,3.6C3.8,3.6,3.8,3.6,3.9,3.6L3.9,3.6
				C3.9,3.5,3.9,3.6,3.9,3.6L3.9,3.6z M7.8,3.7C7.8,3.7,7.8,3.6,7.8,3.7C7.8,3.6,7.8,3.6,7.8,3.7C7.9,3.6,7.9,3.7,7.8,3.7
				C7.9,3.7,7.8,3.7,7.8,3.7L7.8,3.7z M10.7,3.7C10.7,3.7,10.7,3.7,10.7,3.7C10.7,3.6,10.7,3.6,10.7,3.7C10.8,3.6,10.8,3.6,10.7,3.7
				C10.8,3.7,10.8,3.7,10.7,3.7L10.7,3.7z M5.3,3.7C5.3,3.7,5.3,3.7,5.3,3.7C5.3,3.6,5.3,3.6,5.3,3.7C5.4,3.6,5.4,3.7,5.3,3.7
				C5.4,3.7,5.3,3.7,5.3,3.7L5.3,3.7z M10.3,3.7C10.3,3.7,10.3,3.6,10.3,3.7C10.3,3.6,10.3,3.7,10.3,3.7C10.3,3.7,10.3,3.7,10.3,3.7
				C10.3,3.7,10.3,3.7,10.3,3.7L10.3,3.7z M6,3.7C6,3.7,5.9,3.7,6,3.7C6,3.7,6,3.7,6,3.7C6,3.7,6,3.7,6,3.7C6,3.7,6,3.7,6,3.7L6,3.7
				z M4,3.8C4,3.8,4,3.8,4,3.8C4,3.7,4,3.7,4,3.8C4,3.7,4,3.8,4,3.8C4,3.8,4,3.8,4,3.8L4,3.8z M11.2,3.8C11.2,3.8,11.2,3.8,11.2,3.8
				C11.2,3.8,11.2,3.8,11.2,3.8C11.2,3.8,11.3,3.8,11.2,3.8C11.2,3.8,11.2,3.8,11.2,3.8L11.2,3.8z M12.2,3.8
				C12.1,3.8,12.1,3.8,12.2,3.8C12.1,3.8,12.2,3.8,12.2,3.8C12.2,3.8,12.2,3.8,12.2,3.8C12.2,3.8,12.2,3.8,12.2,3.8L12.2,3.8z
				 M11.6,3.8C11.5,3.8,11.5,3.8,11.6,3.8C11.6,3.8,11.6,3.8,11.6,3.8C11.6,3.8,11.6,3.8,11.6,3.8C11.6,3.8,11.6,3.8,11.6,3.8
				L11.6,3.8z M7.8,3.9C7.8,3.9,7.7,3.8,7.8,3.9C7.8,3.8,7.8,3.8,7.8,3.9C7.8,3.8,7.8,3.8,7.8,3.9C7.8,3.9,7.8,3.9,7.8,3.9L7.8,3.9z
				 M6.9,3.9C6.9,3.9,6.9,3.9,6.9,3.9C6.9,3.8,6.9,3.8,6.9,3.9C6.9,3.8,6.9,3.8,6.9,3.9C6.9,3.9,6.9,3.9,6.9,3.9L6.9,3.9z M5.6,3.9
				C5.6,3.9,5.6,3.9,5.6,3.9C5.6,3.8,5.6,3.8,5.6,3.9C5.7,3.8,5.7,3.8,5.6,3.9C5.7,3.9,5.7,3.9,5.6,3.9L5.6,3.9z M12.3,3.9
				C12.3,3.9,12.3,3.8,12.3,3.9C12.3,3.8,12.3,3.8,12.3,3.9C12.4,3.8,12.4,3.9,12.3,3.9C12.3,3.9,12.3,3.9,12.3,3.9L12.3,3.9z
				 M8.8,3.9C8.8,3.9,8.8,3.9,8.8,3.9C8.8,3.9,8.8,3.9,8.8,3.9C8.8,3.9,8.8,3.9,8.8,3.9C8.8,3.9,8.8,3.9,8.8,3.9L8.8,3.9z M9.9,3.9
				C9.9,3.9,9.9,3.9,9.9,3.9C9.9,3.9,9.9,3.9,9.9,3.9C10,3.9,10,3.9,9.9,3.9C9.9,3.9,9.9,3.9,9.9,3.9L9.9,3.9z M5.9,3.9
				C5.9,3.9,5.9,3.9,5.9,3.9C5.9,3.9,5.9,3.9,5.9,3.9L5.9,3.9z M5,3.9C5,3.9,5,3.9,5,3.9C5,3.9,5,3.9,5,3.9C5,3.9,5,3.9,5,3.9
				C5,3.9,5,3.9,5,3.9L5,3.9z M12.1,4C12.1,4,12.1,4,12.1,4C12.1,3.9,12.1,3.9,12.1,4C12.1,3.9,12.1,3.9,12.1,4
				C12.1,4,12.1,4,12.1,4L12.1,4z M7.4,4C7.3,4,7.3,4,7.4,4C7.4,3.9,7.4,3.9,7.4,4C7.4,3.9,7.4,4,7.4,4C7.4,4,7.4,4,7.4,4L7.4,4z
				 M3.8,4.1C3.8,4.1,3.8,4,3.8,4.1C3.8,4,3.8,4,3.8,4.1C3.8,4,3.8,4,3.8,4.1C3.8,4.1,3.8,4.1,3.8,4.1L3.8,4.1z M7.5,4
				C7.4,4,7.4,4,7.5,4C7.4,4,7.4,4,7.5,4C7.5,4,7.5,4,7.5,4C7.5,4,7.5,4,7.5,4L7.5,4z M6.8,4C6.8,4,6.8,4,6.8,4C6.8,4,6.8,4,6.8,4
				C6.9,4,6.9,4,6.8,4C6.9,4,6.8,4,6.8,4L6.8,4z M4.8,4.1C4.8,4.1,4.7,4.1,4.8,4.1C4.8,4,4.8,4,4.8,4.1C4.8,4,4.8,4.1,4.8,4.1
				C4.8,4.1,4.8,4.1,4.8,4.1L4.8,4.1z M6.9,4.1C6.8,4.1,6.8,4.1,6.9,4.1C6.9,4.1,6.9,4.1,6.9,4.1C6.9,4.1,6.9,4.1,6.9,4.1
				C6.9,4.1,6.9,4.1,6.9,4.1L6.9,4.1z M8.7,4.2C8.7,4.2,8.6,4.1,8.7,4.2C8.7,4.1,8.7,4.1,8.7,4.2C8.7,4.1,8.7,4.1,8.7,4.2
				C8.7,4.2,8.7,4.2,8.7,4.2L8.7,4.2z M6,4.2C5.9,4.2,5.9,4.2,6,4.2C5.9,4.1,6,4.1,6,4.2C6,4.1,6,4.2,6,4.2C6,4.2,6,4.2,6,4.2L6,4.2
				z M11.3,4.2C11.3,4.2,11.3,4.2,11.3,4.2C11.3,4.1,11.3,4.1,11.3,4.2C11.4,4.1,11.4,4.2,11.3,4.2C11.4,4.2,11.4,4.2,11.3,4.2
				L11.3,4.2z M8.9,4.2C8.9,4.2,8.9,4.2,8.9,4.2C8.9,4.2,8.9,4.2,8.9,4.2C8.9,4.2,9,4.2,8.9,4.2C8.9,4.2,8.9,4.2,8.9,4.2L8.9,4.2z
				 M12.1,4.3C12.1,4.3,12.1,4.2,12.1,4.3C12.1,4.2,12.1,4.2,12.1,4.3C12.2,4.2,12.2,4.2,12.1,4.3C12.2,4.3,12.1,4.3,12.1,4.3
				L12.1,4.3z M11.1,4.3C11.1,4.3,11.1,4.3,11.1,4.3C11.1,4.2,11.1,4.2,11.1,4.3C11.2,4.2,11.2,4.3,11.1,4.3
				C11.1,4.3,11.1,4.3,11.1,4.3L11.1,4.3z M11.7,4.3C11.7,4.3,11.7,4.3,11.7,4.3C11.7,4.2,11.7,4.2,11.7,4.3
				C11.8,4.2,11.8,4.2,11.7,4.3C11.8,4.3,11.7,4.3,11.7,4.3L11.7,4.3z M7.4,4.3C7.4,4.3,7.3,4.3,7.4,4.3C7.4,4.2,7.4,4.2,7.4,4.3
				C7.4,4.2,7.4,4.3,7.4,4.3C7.4,4.3,7.4,4.3,7.4,4.3L7.4,4.3z M7.5,4.3C7.5,4.3,7.5,4.3,7.5,4.3C7.5,4.2,7.5,4.2,7.5,4.3
				C7.6,4.2,7.6,4.3,7.5,4.3C7.6,4.3,7.6,4.3,7.5,4.3L7.5,4.3z M10.6,4.3C10.6,4.3,10.6,4.3,10.6,4.3C10.7,4.3,10.7,4.3,10.6,4.3
				L10.6,4.3z M8.4,4.3C8.3,4.3,8.3,4.3,8.4,4.3C8.3,4.3,8.4,4.3,8.4,4.3C8.4,4.3,8.4,4.3,8.4,4.3C8.4,4.3,8.4,4.3,8.4,4.3L8.4,4.3z
				 M5.9,4.3C5.9,4.3,5.9,4.3,5.9,4.3C5.9,4.3,5.9,4.3,5.9,4.3L5.9,4.3z M4.9,4.3C4.8,4.3,4.8,4.3,4.9,4.3C4.8,4.3,4.9,4.3,4.9,4.3
				C4.9,4.3,4.9,4.3,4.9,4.3C4.9,4.3,4.9,4.3,4.9,4.3L4.9,4.3z M12.1,4.3C12.1,4.3,12,4.3,12.1,4.3C12.1,4.3,12.1,4.3,12.1,4.3
				C12.1,4.3,12.1,4.3,12.1,4.3C12.1,4.3,12.1,4.3,12.1,4.3L12.1,4.3z M9.4,4.4C9.4,4.4,9.4,4.4,9.4,4.4C9.4,4.3,9.4,4.3,9.4,4.4
				C9.4,4.3,9.4,4.3,9.4,4.4C9.4,4.4,9.4,4.4,9.4,4.4L9.4,4.4z M6.3,4.4C6.3,4.3,6.3,4.3,6.3,4.4C6.3,4.3,6.3,4.3,6.3,4.4
				C6.3,4.4,6.3,4.4,6.3,4.4C6.3,4.4,6.3,4.4,6.3,4.4L6.3,4.4z M11.3,4.4C11.2,4.4,11.2,4.3,11.3,4.4C11.3,4.3,11.3,4.4,11.3,4.4
				L11.3,4.4z M11.4,4.4C11.4,4.4,11.4,4.4,11.4,4.4C11.4,4.4,11.4,4.4,11.4,4.4C11.5,4.4,11.5,4.4,11.4,4.4
				C11.5,4.4,11.5,4.4,11.4,4.4L11.4,4.4z M5.7,4.4C5.6,4.4,5.6,4.4,5.7,4.4C5.7,4.4,5.7,4.4,5.7,4.4C5.7,4.4,5.7,4.4,5.7,4.4
				C5.7,4.4,5.7,4.4,5.7,4.4L5.7,4.4z M6.2,4.5C6.2,4.5,6.2,4.4,6.2,4.5C6.2,4.4,6.2,4.4,6.2,4.5C6.3,4.4,6.3,4.4,6.2,4.5
				C6.2,4.5,6.2,4.5,6.2,4.5L6.2,4.5z M10.5,4.5C10.5,4.5,10.5,4.4,10.5,4.5C10.5,4.4,10.5,4.4,10.5,4.5C10.6,4.4,10.6,4.5,10.5,4.5
				C10.5,4.5,10.5,4.5,10.5,4.5L10.5,4.5z M11.5,4.5C11.5,4.5,11.5,4.5,11.5,4.5C11.5,4.4,11.5,4.4,11.5,4.5
				C11.6,4.4,11.6,4.5,11.5,4.5C11.6,4.5,11.6,4.5,11.5,4.5L11.5,4.5z M8.5,4.5C8.5,4.5,8.5,4.5,8.5,4.5C8.5,4.5,8.5,4.5,8.5,4.5
				C8.5,4.5,8.5,4.5,8.5,4.5C8.5,4.5,8.5,4.5,8.5,4.5L8.5,4.5z M10.7,4.6C10.7,4.6,10.7,4.5,10.7,4.6C10.7,4.5,10.7,4.5,10.7,4.6
				C10.7,4.5,10.8,4.5,10.7,4.6C10.8,4.5,10.8,4.6,10.7,4.6L10.7,4.6z M3.8,4.6C3.8,4.6,3.8,4.5,3.8,4.6C3.8,4.5,3.8,4.5,3.8,4.6
				C3.8,4.5,3.9,4.5,3.8,4.6C3.9,4.5,3.8,4.6,3.8,4.6L3.8,4.6z M8.6,4.6C8.6,4.6,8.6,4.6,8.6,4.6C8.6,4.5,8.6,4.5,8.6,4.6
				C8.6,4.5,8.7,4.6,8.6,4.6L8.6,4.6z M11.4,4.6C11.4,4.6,11.3,4.6,11.4,4.6C11.4,4.5,11.4,4.5,11.4,4.6C11.4,4.5,11.4,4.6,11.4,4.6
				C11.4,4.6,11.4,4.6,11.4,4.6L11.4,4.6z M10.1,4.6C10.1,4.6,10.1,4.6,10.1,4.6C10.1,4.5,10.1,4.5,10.1,4.6
				C10.1,4.5,10.1,4.6,10.1,4.6C10.1,4.6,10.1,4.6,10.1,4.6L10.1,4.6z M8.8,4.6C8.8,4.6,8.8,4.6,8.8,4.6C8.8,4.6,8.8,4.6,8.8,4.6
				C8.9,4.6,8.9,4.6,8.8,4.6C8.9,4.6,8.9,4.6,8.8,4.6L8.8,4.6z M4,4.6C4,4.6,4,4.6,4,4.6C4,4.6,4.1,4.6,4,4.6C4.1,4.6,4.1,4.6,4,4.6
				C4.1,4.6,4.1,4.6,4,4.6L4,4.6z M6.1,4.6C6.1,4.6,6.1,4.6,6.1,4.6C6.1,4.6,6.1,4.6,6.1,4.6C6.1,4.6,6.2,4.6,6.1,4.6
				C6.1,4.6,6.1,4.6,6.1,4.6L6.1,4.6z M8.1,4.6C8.1,4.6,8,4.6,8.1,4.6C8.1,4.6,8.1,4.6,8.1,4.6C8.1,4.6,8.1,4.6,8.1,4.6
				C8.1,4.6,8.1,4.6,8.1,4.6L8.1,4.6z M4.9,4.7C4.8,4.7,4.8,4.6,4.9,4.7C4.9,4.6,4.9,4.6,4.9,4.7L4.9,4.7z M6.5,4.7
				C6.5,4.7,6.5,4.7,6.5,4.7C6.5,4.6,6.5,4.6,6.5,4.7C6.5,4.6,6.5,4.6,6.5,4.7C6.5,4.7,6.5,4.7,6.5,4.7L6.5,4.7z M11.9,4.7
				C11.9,4.7,11.9,4.7,11.9,4.7C11.9,4.6,11.9,4.6,11.9,4.7C11.9,4.6,11.9,4.7,11.9,4.7C11.9,4.7,11.9,4.7,11.9,4.7L11.9,4.7z
				 M10,4.7C10,4.7,10,4.7,10,4.7C10,4.6,10,4.6,10,4.7C10.1,4.6,10.1,4.6,10,4.7C10.1,4.7,10.1,4.7,10,4.7L10,4.7z M9.3,4.7
				C9.2,4.7,9.2,4.7,9.3,4.7C9.3,4.6,9.3,4.6,9.3,4.7C9.3,4.6,9.3,4.7,9.3,4.7C9.3,4.7,9.3,4.7,9.3,4.7L9.3,4.7z M4.2,4.8
				C4.2,4.8,4.2,4.8,4.2,4.8C4.2,4.7,4.2,4.8,4.2,4.8L4.2,4.8z M6.7,4.8C6.7,4.8,6.6,4.8,6.7,4.8C6.7,4.7,6.7,4.7,6.7,4.8
				C6.7,4.7,6.7,4.8,6.7,4.8C6.7,4.8,6.7,4.8,6.7,4.8L6.7,4.8z M9.2,4.8C9.2,4.8,9.2,4.8,9.2,4.8C9.2,4.7,9.2,4.7,9.2,4.8
				C9.3,4.7,9.3,4.8,9.2,4.8C9.2,4.8,9.2,4.8,9.2,4.8L9.2,4.8z M3.7,4.8C3.7,4.8,3.7,4.7,3.7,4.8C3.7,4.7,3.7,4.8,3.7,4.8
				C3.7,4.8,3.6,4.8,3.7,4.8C3.6,4.8,3.7,4.8,3.7,4.8L3.7,4.8z M9,4.8C9,4.8,9,4.8,9,4.8C9,4.7,9,4.7,9,4.8C9.1,4.7,9.1,4.8,9,4.8
				C9,4.8,9,4.8,9,4.8L9,4.8z M4.4,4.8C4.4,4.8,4.4,4.8,4.4,4.8c0,0,0.1,0,0.1,0H4.4L4.4,4.8z M4.6,4.8C4.6,4.8,4.6,4.8,4.6,4.8
				C4.7,4.8,4.7,4.8,4.6,4.8C4.7,4.8,4.7,4.8,4.6,4.8C4.7,4.8,4.7,4.8,4.6,4.8L4.6,4.8z M12.2,4.9C12.2,4.9,12.2,4.9,12.2,4.9
				C12.2,4.8,12.2,4.8,12.2,4.9C12.3,4.8,12.3,4.8,12.2,4.9C12.3,4.9,12.2,4.9,12.2,4.9L12.2,4.9z M12,4.9C12,4.9,12,4.9,12,4.9
				C12,4.8,12,4.8,12,4.9C12.1,4.8,12.1,4.8,12,4.9C12.1,4.9,12,4.9,12,4.9L12,4.9z M8.3,4.9C8.3,4.9,8.2,4.9,8.3,4.9
				C8.3,4.9,8.3,4.9,8.3,4.9C8.3,4.9,8.3,4.9,8.3,4.9C8.3,4.9,8.3,4.9,8.3,4.9L8.3,4.9z M3.5,5C3.4,5,3.4,5,3.5,5C3.5,5,3.5,5,3.5,5
				C3.5,5,3.5,5,3.5,5C3.5,5,3.5,5,3.5,5L3.5,5z M7.6,5C7.6,5,7.6,5,7.6,5C7.6,5,7.6,5,7.6,5C7.7,5,7.7,5,7.6,5C7.7,5,7.6,5,7.6,5
				L7.6,5z M12.2,5.1C12.2,5.1,12.2,5,12.2,5.1C12.2,5,12.2,5,12.2,5.1C12.3,5,12.3,5,12.2,5.1C12.2,5.1,12.2,5.1,12.2,5.1L12.2,5.1
				z M7.9,5.1C7.9,5.1,7.9,5.1,7.9,5.1C7.9,5,7.9,5,7.9,5.1C7.9,5,8,5.1,7.9,5.1C7.9,5.1,7.9,5.1,7.9,5.1L7.9,5.1z M8.4,5.2
				C8.3,5.2,8.3,5.1,8.4,5.2C8.4,5.1,8.4,5.2,8.4,5.2L8.4,5.2z M7.5,5.5C7.5,5.5,7.5,5.5,7.5,5.5C7.5,5.5,7.5,5.5,7.5,5.5
				C7.5,5.5,7.6,5.5,7.5,5.5C7.5,5.5,7.5,5.5,7.5,5.5L7.5,5.5z M8.1,5.6C8.1,5.6,8,5.5,8.1,5.6C8.1,5.5,8.1,5.5,8.1,5.6
				C8.1,5.5,8.1,5.5,8.1,5.6C8.1,5.6,8.1,5.6,8.1,5.6L8.1,5.6z M7.7,5.7C7.7,5.7,7.7,5.7,7.7,5.7C7.7,5.7,7.7,5.7,7.7,5.7
				C7.7,5.7,7.8,5.7,7.7,5.7C7.7,5.7,7.7,5.7,7.7,5.7L7.7,5.7z M7.9,5.8C7.9,5.8,7.9,5.8,7.9,5.8C7.9,5.8,7.9,5.8,7.9,5.8
				C8,5.8,8,5.8,7.9,5.8C7.9,5.8,7.9,5.8,7.9,5.8L7.9,5.8z M8.5,5.9C8.5,5.9,8.5,5.8,8.5,5.9C8.5,5.8,8.5,5.8,8.5,5.9
				C8.5,5.8,8.5,5.8,8.5,5.9C8.5,5.9,8.5,5.9,8.5,5.9L8.5,5.9z M8.2,5.9C8.2,5.9,8.2,5.8,8.2,5.9C8.2,5.8,8.2,5.8,8.2,5.9
				C8.3,5.8,8.3,5.9,8.2,5.9C8.2,5.9,8.2,5.9,8.2,5.9L8.2,5.9z M7.9,6.2C7.8,6.2,7.8,6.1,7.9,6.2C7.8,6.1,7.8,6.1,7.9,6.2
				C7.9,6.1,7.9,6.1,7.9,6.2C7.9,6.2,7.9,6.2,7.9,6.2L7.9,6.2z M7.6,6.5C7.6,6.5,7.6,6.5,7.6,6.5C7.6,6.4,7.6,6.4,7.6,6.5
				C7.6,6.4,7.6,6.4,7.6,6.5C7.6,6.5,7.6,6.5,7.6,6.5L7.6,6.5z M8.4,6.5C8.3,6.5,8.3,6.5,8.4,6.5C8.3,6.5,8.3,6.5,8.4,6.5
				C8.4,6.5,8.4,6.5,8.4,6.5C8.4,6.5,8.4,6.5,8.4,6.5L8.4,6.5z M7.8,6.5C7.8,6.5,7.8,6.5,7.8,6.5C7.8,6.5,7.8,6.5,7.8,6.5
				C7.8,6.5,7.8,6.5,7.8,6.5C7.8,6.5,7.8,6.5,7.8,6.5L7.8,6.5z M7.7,6.5C7.6,6.5,7.6,6.5,7.7,6.5C7.7,6.5,7.7,6.5,7.7,6.5
				C7.7,6.5,7.7,6.5,7.7,6.5C7.7,6.5,7.7,6.5,7.7,6.5L7.7,6.5z M8.2,6.7C8.2,6.7,8.2,6.7,8.2,6.7C8.3,6.7,8.3,6.7,8.2,6.7L8.2,6.7z
				 M8.1,6.8C8,6.8,8,6.8,8.1,6.8C8.1,6.7,8.1,6.7,8.1,6.8C8.1,6.7,8.1,6.8,8.1,6.8C8.1,6.8,8.1,6.8,8.1,6.8L8.1,6.8z M7.9,6.9
				C7.9,6.9,7.9,6.9,7.9,6.9C7.9,6.8,7.9,6.8,7.9,6.9C8,6.8,8,6.8,7.9,6.9C8,6.9,8,6.9,7.9,6.9L7.9,6.9z M8.6,7
				C8.6,6.9,8.6,6.9,8.6,7C8.7,6.9,8.6,7,8.6,7L8.6,7z M8.1,7C8.1,7,8.1,7,8.1,7C8.1,6.9,8.1,6.9,8.1,7C8.1,6.9,8.1,6.9,8.1,7
				C8.1,7,8.1,7,8.1,7L8.1,7z M7.8,7C7.8,7,7.8,7,7.8,7C7.8,7,7.8,7,7.8,7L7.8,7z"></path>
		</g>
		<g>
			<path class="st0" d="M9.9,7.5C9.8,7.5,9.8,7.5,9.7,7.4c-0.2-0.1-0.4,0-0.6,0c-0.1,0-0.2,0-0.3,0c-0.3,0-0.6,0-0.9,0
				c-0.3,0-0.6,0-0.9,0c-0.2,0-0.5,0-0.8,0c-0.1,0-0.1,0.1-0.2,0.2c0,0.2,0,0.3,0,0.5c0.1,0.1,0.2,0.1,0.3,0.1c0.2,0,0.4,0,0.6,0
				c0.2,0,0.4,0,0.5,0c0.4,0,0.8,0,1.2,0c0.1,0,0.3,0,0.4,0c0.1,0,0.2,0,0.3,0c0.1,0,0.2,0,0.3-0.1c0,0,0.1-0.1,0.1-0.1
				C10,7.8,10,7.7,9.9,7.5z M6.2,7.8C6.1,7.9,6.1,7.8,6.2,7.8C6.2,7.8,6.2,7.8,6.2,7.8z M6.3,8C6.3,7.9,6.3,7.9,6.3,8
				C6.4,7.8,6.3,8,6.3,8z M6.3,7.8C6.3,7.8,6.3,7.8,6.3,7.8C6.4,7.8,6.3,7.9,6.3,7.8z M6.4,8.1C6.4,8,6.4,8,6.4,8.1
				C6.5,8,6.5,8.1,6.4,8.1z M6.8,7.6C6.8,7.5,6.8,7.6,6.8,7.6C6.8,7.6,6.8,7.6,6.8,7.6z M6.9,7.8C6.9,7.8,6.9,7.7,6.9,7.8
				C7,7.7,7,7.8,6.9,7.8z M7.1,7.6C7.1,7.6,7.1,7.6,7.1,7.6C7.1,7.6,7.1,7.6,7.1,7.6z M7.7,7.5C7.7,7.5,7.7,7.5,7.7,7.5
				C7.7,7.6,7.7,7.6,7.7,7.5z M7.7,7.7C7.7,7.7,7.7,7.7,7.7,7.7C7.7,7.7,7.8,7.7,7.7,7.7z M7.7,7.9c0,0,0-0.1,0-0.1c0,0,0,0,0,0
				C7.7,7.8,7.7,7.9,7.7,7.9z M7.8,7.7C7.8,7.7,7.8,7.7,7.8,7.7c0.1,0,0,0.1,0,0.1C7.8,7.8,7.8,7.8,7.8,7.7z M7.8,8
				C7.9,7.9,7.9,8,7.8,8C7.9,8,7.8,8,7.8,8z M8.1,7.6C8,7.6,8,7.6,8.1,7.6C8.1,7.5,8.1,7.5,8.1,7.6z M8.1,8C8.1,8,8.2,8,8.1,8
				C8.1,8.1,8.1,8.1,8.1,8z M8.4,7.5C8.4,7.6,8.3,7.5,8.4,7.5C8.4,7.5,8.4,7.5,8.4,7.5z M8.9,7.7C8.8,7.7,8.8,7.7,8.9,7.7
				C8.9,7.6,8.9,7.6,8.9,7.7z M9,7.6C9.1,7.6,9.1,7.6,9,7.6C9,7.7,9,7.6,9,7.6z M9.1,7.6C9,7.6,9.1,7.5,9.1,7.6
				C9.2,7.5,9.1,7.6,9.1,7.6z M9.2,7.8C9.2,7.8,9.2,7.8,9.2,7.8C9.2,7.8,9.2,7.8,9.2,7.8z M9.2,7.6C9.2,7.6,9.2,7.5,9.2,7.6
				C9.2,7.5,9.2,7.6,9.2,7.6z M9.3,7.4C9.3,7.4,9.3,7.4,9.3,7.4C9.3,7.5,9.3,7.5,9.3,7.4z M9.7,7.7C9.7,7.7,9.7,7.7,9.7,7.7
				C9.7,7.6,9.7,7.7,9.7,7.7z M9.7,7.8C9.7,7.8,9.8,7.8,9.7,7.8C9.7,7.9,9.7,7.8,9.7,7.8z M9.8,8C9.8,8,9.8,7.9,9.8,8
				C9.8,7.9,9.8,8,9.8,8z M9.8,7.8C9.8,7.8,9.8,7.7,9.8,7.8C9.8,7.7,9.9,7.8,9.8,7.8z"></path>
			<path class="st0" d="M7.4,7.4c-0.1,0-0.3,0-0.4,0c-0.1,0-0.1,0-0.2,0c-0.1,0-0.2,0-0.3,0c-0.1,0-0.2,0-0.2,0
				c-0.1,0-0.1,0.1-0.2,0.2c0,0.2,0,0.3,0,0.5c0.1,0.1,0.2,0.1,0.3,0.1c0.1,0,0.2,0,0.3,0s0.2,0,0.3,0c0,0,0.1,0,0.1,0
				c0.1,0,0.2,0,0.3,0c0,0,0.1,0,0.1,0c0.1,0,0.2,0,0.4,0c0.3,0,0.5,0,0.8,0c0,0,0.1,0,0.1,0c0,0,0,0,0.1,0c0.1,0,0.1,0,0.2,0
				c0.1,0,0.1,0,0.2,0c0,0,0.1,0,0.2,0c0.1,0,0.1,0,0.2,0c0.1,0,0.2,0,0.3-0.1c0,0,0.1-0.1,0.1-0.1c0-0.1,0-0.3,0-0.4
				C9.8,7.5,9.8,7.5,9.7,7.4c-0.1,0-0.2,0-0.3,0c-0.1,0-0.2,0-0.3,0c0,0-0.1,0-0.1,0c0,0,0,0-0.1,0c-0.1,0-0.2,0-0.2,0
				c0,0-0.1,0-0.1,0c-0.2,0-0.5,0-0.7,0c0,0-0.1,0-0.1,0C7.7,7.4,7.6,7.4,7.4,7.4L7.4,7.4z M9.3,7.5C9.3,7.5,9.3,7.5,9.3,7.5
				C9.3,7.4,9.3,7.4,9.3,7.5C9.3,7.4,9.3,7.4,9.3,7.5C9.3,7.5,9.3,7.5,9.3,7.5L9.3,7.5z M8.4,7.6C8.4,7.6,8.4,7.5,8.4,7.6
				C8.4,7.5,8.4,7.5,8.4,7.6C8.4,7.5,8.4,7.5,8.4,7.6C8.4,7.6,8.4,7.6,8.4,7.6L8.4,7.6z M7.7,7.6C7.7,7.6,7.7,7.6,7.7,7.6
				C7.7,7.5,7.7,7.5,7.7,7.6C7.7,7.5,7.7,7.5,7.7,7.6C7.7,7.6,7.7,7.6,7.7,7.6L7.7,7.6z M8,7.6C8,7.6,8,7.6,8,7.6
				C8,7.5,8.1,7.5,8,7.6C8.1,7.5,8.1,7.6,8,7.6C8.1,7.6,8.1,7.6,8,7.6L8,7.6z M9.1,7.6C9.1,7.6,9.1,7.6,9.1,7.6
				C9.1,7.6,9.1,7.5,9.1,7.6C9.1,7.5,9.1,7.5,9.1,7.6C9.2,7.5,9.1,7.6,9.1,7.6L9.1,7.6z M9.2,7.6C9.2,7.6,9.2,7.5,9.2,7.6
				C9.2,7.5,9.2,7.6,9.2,7.6L9.2,7.6z M6.8,7.6C6.8,7.6,6.8,7.6,6.8,7.6C6.8,7.6,6.8,7.6,6.8,7.6C6.8,7.6,6.8,7.6,6.8,7.6
				C6.8,7.6,6.8,7.6,6.8,7.6L6.8,7.6z M7.1,7.6C7.1,7.6,7.1,7.6,7.1,7.6C7.1,7.6,7.1,7.6,7.1,7.6L7.1,7.6z M9.1,7.7
				C9,7.7,9,7.6,9.1,7.7C9.1,7.6,9.1,7.6,9.1,7.7C9.1,7.6,9.1,7.6,9.1,7.7C9.1,7.7,9.1,7.7,9.1,7.7L9.1,7.7z M8.9,7.7
				C8.8,7.7,8.8,7.7,8.9,7.7C8.9,7.6,8.9,7.6,8.9,7.7C8.9,7.6,8.9,7.6,8.9,7.7C8.9,7.7,8.9,7.7,8.9,7.7L8.9,7.7z M9.7,7.7
				C9.7,7.7,9.7,7.7,9.7,7.7C9.7,7.7,9.7,7.7,9.7,7.7C9.7,7.7,9.7,7.7,9.7,7.7C9.7,7.7,9.7,7.7,9.7,7.7L9.7,7.7z M9.8,7.8
				C9.8,7.8,9.8,7.7,9.8,7.8C9.8,7.7,9.8,7.7,9.8,7.8C9.8,7.7,9.9,7.8,9.8,7.8L9.8,7.8z M7.7,7.7C7.7,7.7,7.7,7.7,7.7,7.7
				C7.7,7.7,7.7,7.7,7.7,7.7C7.7,7.7,7.8,7.7,7.7,7.7C7.7,7.7,7.7,7.7,7.7,7.7L7.7,7.7z M7.8,7.8c0,0,0-0.1,0-0.1c0,0,0.1,0,0.1,0
				C7.8,7.8,7.8,7.8,7.8,7.8L7.8,7.8z M6.9,7.8C6.9,7.8,6.9,7.7,6.9,7.8C7,7.7,7,7.8,6.9,7.8L6.9,7.8z M6.4,7.8
				C6.4,7.8,6.3,7.8,6.4,7.8C6.3,7.8,6.4,7.8,6.4,7.8C6.4,7.8,6.3,7.8,6.4,7.8C6.3,7.8,6.4,7.8,6.4,7.8L6.4,7.8z M9.2,7.8
				C9.2,7.8,9.2,7.8,9.2,7.8C9.2,7.8,9.2,7.8,9.2,7.8C9.2,7.8,9.2,7.8,9.2,7.8C9.2,7.8,9.2,7.8,9.2,7.8L9.2,7.8z M6.1,7.9
				C6.1,7.9,6.1,7.8,6.1,7.9C6.1,7.8,6.1,7.8,6.1,7.9C6.2,7.8,6.2,7.8,6.1,7.9C6.2,7.9,6.1,7.9,6.1,7.9L6.1,7.9z M7.7,7.9
				c0,0,0-0.1,0-0.1c0,0,0,0,0,0C7.7,7.8,7.7,7.9,7.7,7.9L7.7,7.9z M9.7,7.9C9.7,7.9,9.7,7.8,9.7,7.9C9.7,7.8,9.7,7.8,9.7,7.9
				C9.8,7.8,9.8,7.8,9.7,7.9C9.7,7.8,9.7,7.9,9.7,7.9L9.7,7.9z M6.3,7.9C6.3,7.9,6.3,7.9,6.3,7.9C6.3,7.9,6.3,7.9,6.3,7.9
				C6.3,7.9,6.3,8,6.3,7.9C6.3,8,6.3,7.9,6.3,7.9L6.3,7.9z M9.8,8C9.8,8,9.8,7.9,9.8,8C9.8,7.9,9.8,8,9.8,8L9.8,8z M7.9,8
				C7.8,8,7.8,8,7.9,8C7.8,8,7.9,8,7.9,8C7.9,8,7.9,8,7.9,8C7.9,8,7.9,8,7.9,8L7.9,8z M6.5,8C6.5,8,6.5,8,6.5,8C6.5,8,6.5,8,6.5,8
				C6.5,8,6.5,8.1,6.5,8C6.5,8.1,6.5,8,6.5,8L6.5,8z M8.1,8.1C8.1,8.1,8.1,8,8.1,8.1C8.1,8,8.1,8,8.1,8.1C8.1,8,8.2,8,8.1,8.1
				C8.1,8.1,8.1,8.1,8.1,8.1L8.1,8.1z"></path>
		</g>
		<g>
			<path class="st0" d="M8.8,10.9c0-0.2,0-0.3,0-0.5c0-0.4,0-0.8,0-1.1c0,0,0,0,0,0c0,0,0,0,0,0c0-0.3,0-0.5,0-0.8
				c-0.1,0-0.1,0-0.2,0c0,0-0.1,0.1-0.1,0.1c0,0,0-0.1,0-0.1c-0.1,0-0.2,0-0.4,0c0,0-0.1,0-0.1,0.1c0,0.2,0,0.5,0,0.7
				c0,0.1,0,0.2,0,0.3c0,0,0,0,0,0c0,0.1,0,0.1,0,0.2C8,9.9,8,9.9,8,10c0,0.2,0,0.5,0,0.7c0,0.1,0,0.3,0,0.4c0,0.1,0,0.2,0,0.3
				c0,0.2,0,0.5,0,0.7c0,0,0,0-0.1,0c0-0.2,0-0.4,0-0.6c0-0.4,0-0.9,0-1.3c0-0.2,0-0.5,0-0.7c0-0.2,0-0.5,0-0.7c0-0.1,0-0.3,0-0.4
				c-0.2,0-0.5,0-0.7,0c0,0.2,0,0.4,0,0.6c0,0.4,0,0.8,0,1.2c0,0.2,0,0.4,0,0.5c0,0.3,0,0.6,0,0.9c0,0.1,0,0.3,0,0.4
				c0,0.1,0,0.2,0,0.2c0,0,0,0,0,0c0,0.5,0.1,1,0.1,1.5c0,0.1,0,0.2,0.1,0.2c0,0-0.1,0-0.1-0.1c0,0.2,0,0.4,0.1,0.6
				c0,0.1,0,0.3,0.2,0.4c0,0,0,0,0,0c0.1,0.3,0.2,0.6,0.4,0.9C7.9,16,8,16,8,16c0,0,0,0,0,0c0.1-0.1,0.1-0.2,0.2-0.4
				c0.1-0.1,0.1-0.2,0.1-0.4c0-0.1,0-0.2,0.1-0.2c0.1-0.2,0.1-0.5,0.2-0.7c0-0.2,0.1-0.5,0.1-0.7c0-0.1,0.1-0.2,0-0.3
				c0-0.1,0-0.2,0-0.3c0-0.2,0-0.4,0.1-0.6C8.8,12,8.9,11.5,8.8,10.9z M7.2,11.6C7.3,11.5,7.3,11.6,7.2,11.6
				C7.2,11.6,7.2,11.6,7.2,11.6z M7.5,9.9C7.5,9.9,7.5,9.9,7.5,9.9C7.5,9.8,7.5,9.8,7.5,9.9z M7.4,12.9C7.5,12.9,7.5,12.9,7.4,12.9
				C7.4,12.9,7.4,12.9,7.4,12.9z M7.5,13.2C7.4,13.3,7.4,13.2,7.5,13.2C7.5,13.2,7.5,13.2,7.5,13.2z M7.5,12.7
				C7.5,12.7,7.5,12.7,7.5,12.7C7.5,12.8,7.4,12.7,7.5,12.7z M7.5,11.4C7.5,11.4,7.4,11.4,7.5,11.4C7.5,11.3,7.5,11.3,7.5,11.4z
				 M7.3,9.8C7.3,9.7,7.4,9.8,7.3,9.8C7.3,9.8,7.3,9.8,7.3,9.8z M7.4,9.6C7.4,9.6,7.4,9.6,7.4,9.6C7.4,9.7,7.4,9.7,7.4,9.6z
				 M7.4,13.6C7.4,13.5,7.4,13.5,7.4,13.6C7.5,13.5,7.5,13.5,7.4,13.6z M7.5,14.4C7.5,14.3,7.5,14.4,7.5,14.4
				C7.5,14.4,7.5,14.4,7.5,14.4z M7.5,11.1C7.5,11.1,7.5,11.1,7.5,11.1C7.5,11.2,7.5,11.1,7.5,11.1z M7.9,12.1
				C7.8,12.1,7.8,12.1,7.9,12.1C7.9,12,7.9,12,7.9,12.1z M7.8,10.4C7.9,10.4,7.9,10.4,7.8,10.4C7.8,10.5,7.8,10.4,7.8,10.4z
				 M7.7,12.5C7.7,12.5,7.7,12.5,7.7,12.5C7.7,12.6,7.6,12.5,7.7,12.5z M7.7,13.7C7.6,13.7,7.6,13.7,7.7,13.7
				C7.7,13.6,7.7,13.7,7.7,13.7z M7.6,8.5C7.7,8.5,7.7,8.5,7.6,8.5C7.6,8.5,7.6,8.5,7.6,8.5z M7.6,15C7.7,15,7.7,15,7.6,15
				C7.6,15.1,7.6,15.1,7.6,15z M7.7,15.2c0,0,0,0.1,0.1,0.1C7.7,15.3,7.7,15.3,7.7,15.2z M7.8,15.4C7.8,15.4,7.8,15.4,7.8,15.4
				C7.8,15.5,7.7,15.5,7.8,15.4z M7.8,13.2C7.8,13.2,7.8,13.2,7.8,13.2C7.8,13.3,7.7,13.3,7.8,13.2z M7.8,13C7.8,13,7.8,13,7.8,13
				C7.8,13,7.8,13,7.8,13z M7.8,12.2C7.8,12.2,7.8,12.2,7.8,12.2C7.8,12.3,7.8,12.3,7.8,12.2z M7.8,14.9C7.9,14.9,7.9,14.9,7.8,14.9
				C7.8,15,7.8,15,7.8,14.9z M7.8,14.1C7.9,14.1,7.9,14.1,7.8,14.1C7.9,14.2,7.8,14.2,7.8,14.1z M7.9,13.1
				C7.8,13.1,7.8,13.1,7.9,13.1C7.9,13.1,7.9,13.1,7.9,13.1z M8,12.2C8,12.2,8,12.2,8,12.2C8,12.2,8,12.2,8,12.2z M8,12.2
				c0,0,0,0.1,0.1,0.2H8V12.2z M8,15.8C7.9,15.8,7.9,15.8,8,15.8C8,15.8,8,15.8,8,15.8z M8,13.4C8,13.4,8,13.4,8,13.4
				C8,13.3,8.1,13.4,8,13.4z M8,15.5C8,15.4,8.1,15.5,8,15.5C8,15.5,8,15.5,8,15.5z M8,14.9C8,14.9,8,14.8,8,14.9
				C8.1,14.8,8.1,14.9,8,14.9z M8.4,11.3C8.5,11.2,8.5,11.3,8.4,11.3C8.4,11.3,8.4,11.3,8.4,11.3z M8.5,13.1
				C8.4,13.1,8.4,13.1,8.5,13.1C8.5,13,8.5,13.1,8.5,13.1z M8.1,10C8.1,9.9,8.2,10,8.1,10C8.1,10,8.1,10,8.1,10z M8.1,11.9
				C8.1,11.9,8.1,11.9,8.1,11.9C8.2,11.9,8.1,12,8.1,11.9z M8.1,13.5C8.1,13.5,8.2,13.5,8.1,13.5C8.1,13.6,8.1,13.6,8.1,13.5z
				 M8.2,15.7C8.1,15.7,8.1,15.6,8.2,15.7C8.2,15.6,8.2,15.7,8.2,15.7z M8.2,11.2C8.2,11.2,8.2,11.2,8.2,11.2
				C8.2,11.2,8.1,11.2,8.2,11.2z M8.3,12.5C8.2,12.5,8.2,12.5,8.3,12.5C8.3,12.4,8.3,12.5,8.3,12.5z M8.2,12.9
				C8.2,12.8,8.3,12.9,8.2,12.9C8.2,12.9,8.2,12.9,8.2,12.9z M8.3,13.7C8.3,13.7,8.3,13.7,8.3,13.7C8.3,13.7,8.2,13.7,8.3,13.7z
				 M8.3,10.2C8.3,10.1,8.3,10.2,8.3,10.2C8.3,10.3,8.2,10.2,8.3,10.2z M8.3,9.6C8.3,9.6,8.4,9.6,8.3,9.6C8.3,9.7,8.3,9.6,8.3,9.6z
				 M8.3,13.3C8.4,13.3,8.4,13.3,8.3,13.3C8.3,13.3,8.3,13.3,8.3,13.3z M8.3,13.4C8.4,13.4,8.4,13.4,8.3,13.4
				C8.3,13.5,8.3,13.5,8.3,13.4z M8.4,8.7C8.4,8.7,8.4,8.7,8.4,8.7C8.4,8.8,8.4,8.8,8.4,8.7z M8.4,14.5C8.4,14.5,8.4,14.5,8.4,14.5
				C8.4,14.5,8.5,14.5,8.4,14.5C8.5,14.5,8.5,14.5,8.4,14.5z M8.5,13C8.5,13,8.4,13,8.5,13C8.5,13,8.5,13,8.5,13z M8.5,12.2
				c0,0,0-0.1,0-0.1C8.5,12.1,8.5,12.1,8.5,12.2C8.5,12.1,8.5,12.1,8.5,12.2z M8.5,9.9C8.5,9.9,8.5,9.9,8.5,9.9
				C8.5,10,8.5,10,8.5,9.9z M8.7,10.2C8.6,10.2,8.6,10.2,8.7,10.2C8.7,10.2,8.7,10.2,8.7,10.2z M8.7,11.6
				C8.6,11.6,8.6,11.6,8.7,11.6C8.7,11.5,8.7,11.6,8.7,11.6z M8.7,12.1C8.7,12.1,8.7,12.1,8.7,12.1C8.7,12.1,8.7,12.1,8.7,12.1z
				 M8.7,9.4C8.7,9.5,8.6,9.4,8.7,9.4C8.7,9.3,8.7,9.4,8.7,9.4z M8.8,11.4C8.8,11.5,8.7,11.4,8.8,11.4C8.8,11.4,8.8,11.4,8.8,11.4z"></path>
			<path class="st0" d="M8.7,8.4C8.7,8.4,8.7,8.4,8.7,8.4c-0.1,0-0.1,0.1-0.2,0.1c0,0,0-0.1,0-0.1c0,0-0.1,0-0.1,0
				c-0.1,0-0.2,0-0.3,0c0,0-0.1,0-0.1,0.1c0,0.2,0,0.5,0,0.7c0,0.1,0,0.2,0,0.3c0,0,0,0,0,0c0,0.1,0,0.1,0,0.2C8,9.9,8,9.9,8,10
				c0,0.2,0,0.5,0,0.7c0,0.1,0,0.3,0,0.4c0,0.1,0,0.2,0,0.3c0,0.2,0,0.5,0,0.7c0,0,0,0-0.1,0c0-0.2,0-0.4,0-0.6c0-0.4,0-0.9,0-1.3
				c0-0.2,0-0.5,0-0.7c0-0.2,0-0.5,0-0.7c0-0.1,0-0.3,0-0.4c-0.1,0-0.2,0-0.3,0c-0.1,0-0.2,0-0.3,0c-0.1,0-0.1,0-0.2,0
				c0,0.2,0,0.4,0,0.6c0,0.4,0,0.8,0,1.2c0,0.2,0,0.4,0,0.5c0,0.3,0,0.6,0,0.9c0,0.1,0,0.3,0,0.4c0,0.1,0,0.2,0,0.2c0,0,0,0,0,0
				c0,0.5,0.1,1,0.1,1.5c0,0.1,0,0.2,0.1,0.2c0,0-0.1,0-0.1-0.1c0,0.2,0,0.4,0.1,0.6c0,0.1,0,0.3,0.2,0.4c0,0,0,0,0,0
				c0.1,0.3,0.2,0.6,0.4,0.9C7.9,16,8,16,8,16c0,0,0,0,0,0c0.1-0.1,0.1-0.2,0.2-0.4c0.1-0.1,0.1-0.2,0.1-0.4c0-0.1,0-0.2,0.1-0.2
				c0.1-0.2,0.1-0.5,0.2-0.7c0-0.2,0.1-0.5,0.1-0.7c0-0.1,0.1-0.2,0-0.3c0-0.1,0-0.2,0-0.3c0-0.2,0-0.4,0.1-0.6c0-0.5,0.1-1,0-1.6
				c0-0.2,0-0.3,0-0.5c0-0.4,0-0.8,0-1.1c0,0,0,0,0,0c0,0,0,0,0,0c0-0.3,0-0.5,0-0.8C8.8,8.5,8.7,8.4,8.7,8.4L8.7,8.4z M7.6,8.5
				C7.6,8.5,7.6,8.5,7.6,8.5C7.7,8.5,7.7,8.5,7.6,8.5L7.6,8.5z M8.4,8.8C8.4,8.8,8.4,8.7,8.4,8.8C8.4,8.7,8.4,8.7,8.4,8.8
				C8.4,8.7,8.4,8.7,8.4,8.8C8.4,8.8,8.4,8.8,8.4,8.8L8.4,8.8z M8.7,9.4C8.7,9.4,8.6,9.4,8.7,9.4C8.7,9.4,8.7,9.4,8.7,9.4
				C8.7,9.4,8.7,9.4,8.7,9.4C8.7,9.4,8.7,9.4,8.7,9.4L8.7,9.4z M8.3,9.6C8.3,9.6,8.3,9.6,8.3,9.6C8.3,9.6,8.3,9.6,8.3,9.6
				C8.4,9.6,8.4,9.6,8.3,9.6C8.4,9.6,8.4,9.6,8.3,9.6L8.3,9.6z M7.4,9.7C7.4,9.7,7.4,9.7,7.4,9.7C7.4,9.6,7.4,9.6,7.4,9.7
				C7.4,9.6,7.4,9.7,7.4,9.7C7.4,9.7,7.4,9.7,7.4,9.7L7.4,9.7z M7.3,9.8C7.3,9.8,7.3,9.8,7.3,9.8C7.3,9.8,7.3,9.8,7.3,9.8
				C7.4,9.8,7.4,9.8,7.3,9.8C7.4,9.8,7.3,9.8,7.3,9.8L7.3,9.8z M7.5,9.9C7.5,9.9,7.5,9.9,7.5,9.9C7.5,9.8,7.5,9.8,7.5,9.9
				C7.5,9.8,7.5,9.8,7.5,9.9C7.5,9.9,7.5,9.9,7.5,9.9L7.5,9.9z M8.5,10C8.5,10,8.5,9.9,8.5,10C8.5,9.9,8.5,9.9,8.5,10
				C8.5,9.9,8.5,9.9,8.5,10C8.5,9.9,8.5,10,8.5,10L8.5,10z M8.1,10C8.1,10,8.1,10,8.1,10C8.1,9.9,8.1,9.9,8.1,10
				C8.1,9.9,8.2,10,8.1,10C8.1,10,8.1,10,8.1,10L8.1,10z M8.3,10.2C8.3,10.2,8.2,10.2,8.3,10.2C8.3,10.2,8.3,10.2,8.3,10.2
				C8.3,10.2,8.3,10.2,8.3,10.2C8.3,10.2,8.3,10.2,8.3,10.2L8.3,10.2z M8.6,10.2C8.6,10.2,8.6,10.2,8.6,10.2
				C8.6,10.2,8.6,10.2,8.6,10.2C8.7,10.2,8.7,10.2,8.6,10.2C8.6,10.2,8.6,10.2,8.6,10.2L8.6,10.2z M7.8,10.5
				C7.8,10.5,7.8,10.4,7.8,10.5C7.8,10.4,7.8,10.4,7.8,10.5C7.9,10.4,7.9,10.4,7.8,10.5C7.9,10.5,7.9,10.5,7.8,10.5L7.8,10.5z
				 M7.5,11.2C7.5,11.2,7.5,11.1,7.5,11.2C7.5,11.1,7.5,11.1,7.5,11.2C7.5,11.1,7.5,11.1,7.5,11.2C7.5,11.2,7.5,11.2,7.5,11.2
				L7.5,11.2z M8.2,11.2C8.2,11.2,8.1,11.2,8.2,11.2C8.2,11.2,8.2,11.2,8.2,11.2C8.2,11.2,8.2,11.2,8.2,11.2
				C8.2,11.2,8.2,11.2,8.2,11.2L8.2,11.2z M8.5,11.3C8.4,11.3,8.4,11.3,8.5,11.3C8.4,11.3,8.5,11.3,8.5,11.3
				C8.5,11.3,8.5,11.3,8.5,11.3C8.5,11.3,8.5,11.3,8.5,11.3L8.5,11.3z M7.5,11.4C7.4,11.4,7.4,11.4,7.5,11.4
				C7.4,11.4,7.5,11.3,7.5,11.4C7.5,11.3,7.5,11.4,7.5,11.4C7.5,11.4,7.5,11.4,7.5,11.4L7.5,11.4z M8.8,11.4
				C8.8,11.4,8.7,11.4,8.8,11.4C8.8,11.4,8.8,11.4,8.8,11.4C8.8,11.4,8.8,11.4,8.8,11.4L8.8,11.4z M8.6,11.6
				C8.6,11.6,8.6,11.6,8.6,11.6C8.6,11.6,8.6,11.6,8.6,11.6C8.7,11.6,8.7,11.6,8.6,11.6C8.7,11.6,8.6,11.6,8.6,11.6L8.6,11.6z
				 M7.3,11.6C7.2,11.6,7.2,11.6,7.3,11.6C7.3,11.6,7.3,11.6,7.3,11.6C7.3,11.6,7.3,11.6,7.3,11.6C7.3,11.6,7.3,11.6,7.3,11.6
				L7.3,11.6z M8.2,11.9C8.2,11.9,8.2,11.9,8.2,11.9C8.2,11.9,8.2,11.9,8.2,11.9C8.2,11.9,8.2,12,8.2,11.9C8.2,12,8.2,11.9,8.2,11.9
				L8.2,11.9z M7.9,12.1C7.8,12.1,7.8,12.1,7.9,12.1C7.9,12,7.9,12,7.9,12.1C7.9,12,7.9,12.1,7.9,12.1C7.9,12.1,7.9,12.1,7.9,12.1
				L7.9,12.1z M8.5,12.2c0,0,0-0.1,0-0.1C8.5,12.1,8.5,12.1,8.5,12.2C8.5,12.1,8.5,12.1,8.5,12.2L8.5,12.2z M8.7,12.1
				C8.7,12.1,8.7,12.1,8.7,12.1C8.7,12.1,8.7,12.1,8.7,12.1C8.7,12.1,8.7,12.1,8.7,12.1C8.7,12.1,8.7,12.1,8.7,12.1L8.7,12.1z
				 M8,12.2C8,12.2,8,12.2,8,12.2C8,12.2,8,12.2,8,12.2C8,12.2,8,12.2,8,12.2C8,12.2,8,12.2,8,12.2L8,12.2z M7.8,12.3
				C7.8,12.3,7.8,12.3,7.8,12.3C7.8,12.2,7.8,12.3,7.8,12.3L7.8,12.3z M8,12.4v-0.2C8,12.3,8,12.3,8,12.4L8,12.4L8,12.4z M8.2,12.5
				C8.2,12.5,8.2,12.5,8.2,12.5C8.2,12.4,8.2,12.4,8.2,12.5C8.3,12.4,8.3,12.5,8.2,12.5C8.3,12.5,8.3,12.5,8.2,12.5L8.2,12.5z
				 M7.7,12.5C7.6,12.5,7.6,12.5,7.7,12.5C7.7,12.5,7.7,12.5,7.7,12.5C7.7,12.5,7.7,12.5,7.7,12.5C7.7,12.5,7.7,12.5,7.7,12.5
				L7.7,12.5z M7.5,12.8C7.4,12.8,7.4,12.7,7.5,12.8C7.5,12.7,7.5,12.7,7.5,12.8C7.5,12.7,7.5,12.7,7.5,12.8
				C7.5,12.8,7.5,12.8,7.5,12.8L7.5,12.8z M8.2,12.9C8.2,12.9,8.2,12.9,8.2,12.9C8.2,12.9,8.2,12.9,8.2,12.9
				C8.3,12.9,8.3,12.9,8.2,12.9C8.2,12.9,8.2,12.9,8.2,12.9L8.2,12.9z M7.4,12.9C7.4,12.9,7.4,12.9,7.4,12.9
				C7.4,12.9,7.4,12.9,7.4,12.9C7.5,12.9,7.5,12.9,7.4,12.9C7.5,12.9,7.4,12.9,7.4,12.9L7.4,12.9z M8.5,13C8.5,13,8.4,13,8.5,13
				C8.5,13,8.5,13,8.5,13C8.5,13,8.5,13,8.5,13C8.5,13,8.5,13,8.5,13L8.5,13z M7.8,13C7.8,13,7.8,13,7.8,13C7.8,13,7.8,13,7.8,13
				C7.8,13,7.8,13,7.8,13C7.8,13,7.8,13,7.8,13L7.8,13z M8.4,13.1C8.4,13.1,8.4,13.1,8.4,13.1C8.4,13.1,8.4,13.1,8.4,13.1
				C8.5,13.1,8.5,13.1,8.4,13.1C8.4,13.1,8.4,13.1,8.4,13.1L8.4,13.1z M7.9,13.1C7.8,13.1,7.8,13.1,7.9,13.1
				C7.9,13.1,7.9,13.1,7.9,13.1L7.9,13.1z M7.4,13.3C7.4,13.3,7.4,13.2,7.4,13.3C7.4,13.2,7.4,13.2,7.4,13.3
				C7.5,13.2,7.5,13.2,7.4,13.3C7.5,13.3,7.4,13.3,7.4,13.3L7.4,13.3z M7.8,13.3C7.8,13.3,7.7,13.3,7.8,13.3
				C7.8,13.2,7.8,13.2,7.8,13.3C7.8,13.2,7.8,13.2,7.8,13.3C7.8,13.3,7.8,13.3,7.8,13.3L7.8,13.3z M8.3,13.3
				C8.3,13.3,8.3,13.3,8.3,13.3C8.4,13.3,8.4,13.3,8.3,13.3L8.3,13.3z M8,13.4C8,13.4,8,13.4,8,13.4C8,13.4,8,13.3,8,13.4
				C8,13.3,8.1,13.4,8,13.4C8,13.4,8,13.4,8,13.4L8,13.4z M8.4,13.5C8.3,13.5,8.3,13.5,8.4,13.5C8.4,13.4,8.4,13.4,8.4,13.5
				C8.4,13.4,8.4,13.4,8.4,13.5C8.4,13.5,8.4,13.5,8.4,13.5L8.4,13.5z M8.1,13.6C8.1,13.6,8.1,13.5,8.1,13.6
				C8.1,13.5,8.1,13.5,8.1,13.6C8.1,13.5,8.2,13.5,8.1,13.6C8.1,13.6,8.1,13.6,8.1,13.6L8.1,13.6z M7.4,13.6
				C7.4,13.5,7.4,13.5,7.4,13.6C7.5,13.5,7.5,13.5,7.4,13.6L7.4,13.6z M7.6,13.7C7.6,13.7,7.6,13.7,7.6,13.7
				C7.6,13.7,7.6,13.7,7.6,13.7C7.7,13.7,7.7,13.7,7.6,13.7C7.7,13.7,7.7,13.7,7.6,13.7L7.6,13.7z M8.3,13.7
				C8.3,13.7,8.3,13.7,8.3,13.7C8.3,13.7,8.3,13.7,8.3,13.7C8.3,13.7,8.3,13.7,8.3,13.7C8.3,13.7,8.3,13.7,8.3,13.7L8.3,13.7z
				 M7.9,14.2C7.9,14.2,7.8,14.1,7.9,14.2C7.9,14.1,7.9,14.1,7.9,14.2C7.9,14.1,7.9,14.1,7.9,14.2C7.9,14.2,7.9,14.2,7.9,14.2
				L7.9,14.2z M7.5,14.4C7.5,14.4,7.5,14.4,7.5,14.4C7.5,14.4,7.5,14.4,7.5,14.4C7.5,14.4,7.5,14.4,7.5,14.4
				C7.5,14.4,7.5,14.4,7.5,14.4L7.5,14.4z M8.4,14.5C8.4,14.5,8.4,14.5,8.4,14.5C8.4,14.5,8.5,14.5,8.4,14.5
				C8.5,14.5,8.5,14.5,8.4,14.5L8.4,14.5z M8,14.9C8,14.9,8,14.8,8,14.9C8.1,14.8,8.1,14.9,8,14.9L8,14.9z M7.8,15
				C7.8,15,7.8,14.9,7.8,15C7.8,14.9,7.8,14.9,7.8,15C7.9,14.9,7.9,14.9,7.8,15C7.9,15,7.9,15,7.8,15L7.8,15z M7.6,15.1
				C7.6,15.1,7.6,15.1,7.6,15.1C7.6,15,7.6,15,7.6,15.1C7.7,15,7.7,15,7.6,15.1C7.7,15.1,7.7,15.1,7.6,15.1L7.6,15.1z M7.7,15.3
				c0,0-0.1-0.1-0.1-0.1C7.7,15.2,7.7,15.3,7.7,15.3L7.7,15.3z M7.8,15.5C7.7,15.5,7.7,15.4,7.8,15.5C7.8,15.4,7.8,15.4,7.8,15.5
				C7.8,15.4,7.8,15.4,7.8,15.5C7.8,15.5,7.8,15.5,7.8,15.5L7.8,15.5z M8,15.5C8,15.5,8,15.5,8,15.5C8,15.5,8,15.5,8,15.5
				C8,15.5,8.1,15.5,8,15.5C8,15.5,8,15.5,8,15.5L8,15.5z M8.2,15.7C8.1,15.7,8.1,15.6,8.2,15.7C8.2,15.6,8.2,15.7,8.2,15.7
				L8.2,15.7z M8,15.8C7.9,15.8,7.9,15.8,8,15.8C7.9,15.8,7.9,15.8,8,15.8C8,15.8,8,15.8,8,15.8C8,15.8,8,15.8,8,15.8L8,15.8z"></path>
		</g>
	</g>
</g>
</svg><style>@media (prefers-color-scheme: light) { :root { filter: none; } }
@media (prefers-color-scheme: dark) { :root { filter: none; } }
</style></svg>