<svg xmlns="http://www.w3.org/2000/svg" xml:space="preserve" viewBox="0 0 512 512"><path fill="#a7885b" d="m258.6.3 7.5 70.1-15.8-.7L258.6.3zm-65.5 34 25.5 26-12.4 8-13.1-34zm91.8 41.4 32.3-39-21.9 48.5c-3.2-2.9-7.5-6.2-10.4-9.5zm-129.4-2.5 33.9 12.2-6.2 13.4-27.7-25.6zm154.2 24.1 42.7-16.5-36.8 29c-2.1-4.1-4.4-8.1-5.9-12.5zm-55.6-13.1c41.9 0 72.2 56 35.7 88.3a56.3 56.3 0 0 1-47.5-16.9c-21.8-21.8-16.2-57.3-6.6-66.9 3.2-3.2 13.6-4.5 18.4-4.5zM131.6 129l46.6-8.2 1.6 13.9-48.2-5.7zm188.3-6.1 56.6 5.6-54.1 7.1-2.5-12.7z"/><path fill="#f0eee9" d="M298.3 224.7c-6.7-9.1-13.7-18-19.9-27.5-4.9 2-9.9 3.7-14.7 5.8l-7.4 100.4-6.2-99.7-18.9-2.8c-7.4 7.9-12.2 18-19.7 25.9 0 .1 34.2 256.5 44.3 285.4 15.4-63.2 43-278.5 42.5-287.5zm-98.5-41.9-48 18.5 41.4-26.5c-4.8-8.4-8.7-17.2-12.2-26.2-83.2 29.5-115.7 70.3-148.3 127.5 54.1-47.1 129.6-67.7 172.3-60 4.5-6.6 8-13.8 11.7-20.9-7.5-4.7-15.5-11-16.9-12.4zm120.6-37c-2.4 8.3-5.9 16.1-9.3 24l49.2 31.4-57.4-21.7c-3.9 4-7.5 8.2-11.3 12.3 4.7 6.8 8.3 14.5 14 20.6 61.4-2.1 134.2 25.4 174.9 64.6-29-77.2-126-115.4-160.1-131.2zM239 66.1a62.7 62.7 0 0 0-47.8 60.4c0 18.2 7.2 34.3 21.1 48.3 11.3 11.3 42.6 21.6 58.4 9.2-49.7-9.4-83.4-64.9-31.7-117.9z"/></svg>