<?xml version="1.0" standalone="no"?>
<!DOCTYPE svg PUBLIC "-//W3C//DTD SVG 20010904//EN"
 "http://www.w3.org/TR/2001/REC-SVG-20010904/DTD/svg10.dtd">
<svg version="1.0" xmlns="http://www.w3.org/2000/svg"
 width="700.000000pt" height="700.000000pt" viewBox="0 0 700.000000 700.000000"
 preserveAspectRatio="xMidYMid meet">
<metadata>
Created by potrace 1.11, written by Peter Selinger 2001-2013
</metadata>
<g transform="translate(0.000000,700.000000) scale(0.100000,-0.100000)"
fill="#000000" stroke="none">
<path d="M715 6994 c-222 -46 -363 -119 -488 -253 -112 -121 -167 -226 -214
-406 -12 -45 -14 -5568 -2 -5640 56 -346 327 -618 679 -684 37 -7 974 -9 2840
-8 l2785 2 86 27 c91 28 199 81 258 125 120 89 235 240 286 378 57 151 54 -18
54 2965 0 1821 -3 2774 -10 2810 -56 301 -259 543 -539 642 -57 20 -73 24
-155 38 -48 9 -5539 12 -5580 4z"/>
</g>
</svg>
